<svg width="16px" height="11px" viewBox="0 0 16 11" version="1.1" xmlns="http://www.w3.org/2000/svg" xmlns:xlink="http://www.w3.org/1999/xlink">
    <title>Pfeil nach rechts</title>
    <g stroke="none" stroke-width="1" fill="none" fill-rule="evenodd">
        <g transform="translate(-1149.000000, -999.000000)" fill="#0A00FF">
            <path d="M1164.7822,1003.97874 L1160.02146,999.217197 C1159.73107,998.927601 1159.25987,998.927601 1158.96868,999.217197 C1158.67828,999.508394 1158.67828,999.978788 1158.96868,1000.26998 L1162.46063,1003.76114 L1149.74399,1003.76114 C1149.3328,1003.76114 1149,1004.09394 1149,1004.50513 C1149,1004.91553 1149.3328,1005.24912 1149.74399,1005.24912 L1162.46063,1005.24912 L1158.96868,1008.74028 C1158.67828,1009.03067 1158.67828,1009.50187 1158.96868,1009.79227 C1159.11427,1009.93786 1159.30467,1010.01066 1159.49507,1010.01066 C1159.68547,1010.01066 1159.87586,1009.93786 1160.02146,1009.79227 L1164.7822,1005.03072 C1165.0726,1004.74033 1165.0726,1004.26913 1164.7822,1003.97874"></path>
        </g>
    </g>
</svg>
