<?xml version="1.0" encoding="UTF-8"?>
<svg width="100px" height="100px" viewBox="0 0 100 100" version="1.1" xmlns="http://www.w3.org/2000/svg" xmlns:xlink="http://www.w3.org/1999/xlink">
    <!-- Generator: Sketch 50.2 (55047) - http://www.bohemiancoding.com/sketch -->
    <title>Group 6</title>
    <desc>Created with Sketch.</desc>
    <defs>
        <polygon id="path-1" points="53.935 0 50 5.219 46.065 0 42.995 5.771 38.291 1.231 36.162 7.411 30.807 3.663 29.67 10.1 23.794 7.236 23.678 13.772 17.427 11.862 18.335 18.335 11.862 17.428 13.772 23.678 7.236 23.794 10.1 29.67 3.663 30.807 7.41 36.162 1.231 38.291 5.771 42.995 0 46.065 5.219 50 0 53.935 5.771 57.005 1.231 61.708 7.41 63.838 3.663 69.194 10.1 70.331 7.236 76.206 13.772 76.321 11.862 82.573 18.335 81.664 17.427 88.138 23.678 86.228 23.794 92.764 29.67 89.9 30.807 96.337 36.162 92.589 38.291 98.769 42.995 94.229 46.065 100 50 94.781 53.935 100 57.005 94.229 61.708 98.769 63.838 92.589 69.194 96.337 70.33 89.9 76.206 92.764 76.322 86.228 82.573 88.138 81.665 81.664 88.138 82.573 86.228 76.321 92.764 76.206 89.9 70.331 96.337 69.194 92.589 63.838 98.769 61.708 94.229 57.005 100 53.935 94.781 50 100 46.065 94.229 42.995 98.769 38.291 92.589 36.162 96.337 30.807 89.9 29.67 92.764 23.794 86.228 23.678 88.138 17.428 81.665 18.335 82.573 11.862 76.322 13.772 76.206 7.236 70.33 10.1 69.194 3.663 63.838 7.411 61.708 1.231 57.005 5.771"></polygon>
    </defs>
    <g id="Open-Graph" stroke="none" stroke-width="1" fill="none" fill-rule="evenodd">
        <g id="Artboard" transform="translate(-908.000000, -192.000000)">
            <g id="Group-6" transform="translate(908.000000, 192.000000)">
                <g id="donate"></g>
                <mask id="mask-2" fill="white">
                    <use xlink:href="#path-1"></use>
                </mask>
                <use id="Shape" fill="#072B8A" fill-rule="nonzero" xlink:href="#path-1"></use>
                <g id="Group-5" mask="url(#mask-2)">
                    <g transform="translate(265.212009, 120.554932) rotate(-37.000000) translate(-265.212009, -120.554932) translate(-37.787991, -168.945068)">
                        <polygon id="Path-11" fill="#072B8A" points="404.922158 21 249 208.974192 259.380419 244 510 244 504.889972 21"></polygon>
                        <rect id="Rectangle" fill="#000000" x="1" y="11" width="95" height="351"></rect>
                        <rect id="Rectangle-2" fill="#FFEC00" x="95" y="11" width="47" height="351"></rect>
                        <path d="M142,37 C160.668178,67 186.80545,82 220.411817,82 C254.018184,82 303.214245,67 368,37 L142,37 Z" id="Path-10" fill="#FF3C14"></path>
                    </g>
                </g>
            </g>
        </g>
    </g>
</svg>