<svg width="40px" height="50px" viewBox="0 0 40 50" version="1.1" xmlns="http://www.w3.org/2000/svg" xmlns:xlink="http://www.w3.org/1999/xlink">
    <title>Datei icon</title>
    <g stroke="none" stroke-width="1" fill="none" fill-rule="evenodd">
        <g transform="translate(-618.000000, -3877.000000)" fill="#000000">
            <g transform="translate(618.000000, 3877.000000)">
                <path d="M33.1481481,21 L11.8518519,21 C11.3816296,21 11,21.447 11,22 C11,22.553 11.3816296,23 11.8518519,23 L33.1481481,23 C33.6183704,23 34,22.553 34,22 C34,21.447 33.6183704,21 33.1481481,21" id="Fill-1"></path>
                <path d="M11.8333333,16 L20.1666667,16 C20.6266667,16 21,15.553 21,15 C21,14.447 20.6266667,14 20.1666667,14 L11.8333333,14 C11.3733333,14 11,14.447 11,15 C11,15.553 11.3733333,16 11.8333333,16" id="Fill-3"></path>
                <path d="M33.1481481,28 L11.8518519,28 C11.3816296,28 11,28.447 11,29 C11,29.553 11.3816296,30 11.8518519,30 L33.1481481,30 C33.6183704,30 34,29.553 34,29 C34,28.447 33.6183704,28 33.1481481,28" id="Fill-5"></path>
                <path d="M33.1481481,34 L11.8518519,34 C11.3816296,34 11,34.447 11,35 C11,35.553 11.3816296,36 11.8518519,36 L33.1481481,36 C33.6183704,36 34,35.553 34,35 C34,34.447 33.6183704,34 33.1481481,34" id="Fill-7"></path>
                <path d="M33.1481481,41 L11.8518519,41 C11.3816296,41 11,41.447 11,42 C11,42.553 11.3816296,43 11.8518519,43 L33.1481481,43 C33.6183704,43 34,42.553 34,42 C34,41.447 33.6183704,41 33.1481481,41" id="Fill-9"></path>
                <path d="M5.83333333,48.3333333 L5.83333333,45.8333333 L5.83333333,5.83333333 L26.6666667,5.83333333 L26.6666667,17.5 L38.3333333,17.5 L38.3333333,48.3333333 L5.83333333,48.3333333 Z M1.66666667,44.1666667 L1.66666667,1.66666667 L34.1666667,1.66666667 L34.1666667,10.4883333 L27.845,4.16666667 L4.16666667,4.16666667 L4.16666667,44.1666667 L1.66666667,44.1666667 Z M28.3333333,7.01166667 L35.8333333,14.5116667 L37.155,15.8333333 L28.3333333,15.8333333 L28.3333333,7.01166667 Z M35.8333333,12.155 L35.8333333,0 L0,0 L0,45.8333333 L4.16666667,45.8333333 L4.16666667,50 L40,50 L40,16.3216667 L35.8333333,12.155 Z" id="Fill-11"></path>
            </g>
        </g>
    </g>
</svg>
