<svg version="1.1" xmlns="http://www.w3.org/2000/svg" xmlns:xlink="http://www.w3.org/1999/xlink" x="0px" y="0px" viewBox="0 0 18 19" style="enable-background:new 0 0 18 19;" xml:space="preserve">
    <title>Flickr</title>
    <g>
	<g transform="translate(-885.000000, -3033.000000)">
	    <g transform="translate(33.000000, 2697.000000)">
		<g>
		    <path d="M867.6,336.8c0.5,0,1,0.2,1.3,0.5s0.5,0.8,0.5,1.3v13.8c0,0.5-0.2,1-0.5,1.3s-0.8,0.5-1.3,0.5h-13.8
			     c-0.5,0-1-0.2-1.3-0.5s-0.5-0.8-0.5-1.3v-13.8c0-0.5,0.2-1,0.5-1.3s0.8-0.5,1.3-0.5H867.6z M857.7,348c0.7,0,1.3-0.2,1.7-0.7
			     s0.7-1.1,0.7-1.8s-0.2-1.3-0.7-1.8s-1.1-0.7-1.8-0.7s-1.3,0.2-1.8,0.7s-0.7,1.1-0.7,1.8s0.2,1.3,0.7,1.8S857,348,857.7,348z
			     M863.9,348c0.7,0,1.3-0.2,1.7-0.7s0.7-1.1,0.7-1.8s-0.2-1.3-0.7-1.8s-1.1-0.7-1.8-0.7s-1.3,0.2-1.8,0.7
			     c-0.5,0.5-0.7,1.1-0.7,1.8s0.2,1.3,0.7,1.8C862.6,347.7,863.2,348,863.9,348z"/>
		</g>
	    </g>
	</g>
    </g>
</svg>
