<?xml version="1.0" encoding="UTF-8"?> <!-- Generator: Adobe Illustrator 23.1.1, SVG Export Plug-In . SVG Version: 6.00 Build 0) --> <svg xmlns="http://www.w3.org/2000/svg" xmlns:xlink="http://www.w3.org/1999/xlink" id="Ebene_1" x="0px" y="0px" viewBox="0 0 287.7 367.1" style="enable-background:new 0 0 287.7 367.1;" xml:space="preserve"> <style type="text/css"> .st0{fill:#FFD003;} .st1{fill:#00A6DE;} .st2{fill:#1D1D1B;} .st3{fill:#FFFFFF;} </style> <rect x="258" y="297.6" width="9.9" height="9.9"></rect> <rect x="267.9" y="307.6" width="9.9" height="9.9"></rect> <rect x="277.8" y="317.5" width="9.9" height="9.9"></rect> <rect x="267.9" y="327.4" width="9.9" height="9.9"></rect> <rect x="258" y="337.3" width="9.9" height="9.9"></rect> <g> <polygon class="st0" points="218.3,119.1 218.3,99.2 39.7,99.2 39.7,129 39.7,138.9 79.4,138.9 79.4,148.9 228.2,148.9 228.2,119.1 "></polygon> <rect x="59.5" width="148.8" height="9.9"></rect> <polygon points="208.3,10 208.3,89 59.5,89 59.5,10 49.6,10 49.6,89 49.6,99.2 49.6,99.2 208.3,99.2 218.3,99.2 218.3,89 218.3,10 "></polygon> <rect x="59.5" y="9.9" class="st1" width="148.8" height="79.4"></rect> <rect x="39.7" y="99.2" width="9.9" height="19.8"></rect> <rect x="59.5" y="109.1" width="9.9" height="9.9"></rect> <rect x="79.4" y="109.1" width="9.9" height="9.9"></rect> <rect x="99.2" y="109.1" width="9.9" height="10"></rect> <rect x="119.1" y="109.1" width="9.8" height="9.9"></rect> <rect x="138.9" y="109.1" width="9.9" height="9.9"></rect> <rect x="158.7" y="109.1" width="9.9" height="9.9"></rect> <rect x="178.6" y="109.1" width="9.9" height="9.9"></rect> <rect x="29.8" y="119" width="9.9" height="19.8"></rect> <rect x="49.6" y="129" width="9.9" height="9.9"></rect> <rect x="69.4" y="129" width="9.9" height="9.9"></rect> <rect x="89.3" y="129" width="89.3" height="9.9"></rect> <rect x="188.5" y="129" class="st2" width="9.5" height="9.9"></rect> <rect x="189.1" y="129" width="9.3" height="9.9"></rect> <rect x="218.3" y="99.2" width="9.9" height="19.8"></rect> <polygon points="238.1,149 238.1,119 228.2,119 228.2,149 79.4,149 79.4,158.7 238.1,158.7 238.1,149 "></polygon> <rect x="79.4" y="148.8" class="st2" width="9.9" height="9.9"></rect> <rect x="9.9" y="238.1" width="9.9" height="29.8"></rect> <rect x="19.8" y="267.9" width="9.9" height="49.6"></rect> <rect x="79.4" y="277.8" width="9.9" height="39.7"></rect> <rect x="29.8" y="307.6" width="49.6" height="9.9"></rect> <rect x="89.3" y="258" width="9.9" height="19.8"></rect> <rect x="99.2" y="238.1" width="9.9" height="19.8"></rect> <rect x="109.1" y="218.3" width="9.9" height="19.8"></rect> <rect x="99.2" y="208.3" width="9.9" height="9.9"></rect> <rect x="79.4" y="218.3" width="19.8" height="9.9"></rect> <rect x="158.7" y="168.7" width="9.9" height="9.9"></rect> <rect x="168.7" y="178.6" width="9.9" height="9.9"></rect> <rect x="148.8" y="178.6" width="9.9" height="19.8"></rect> <rect x="178.6" y="188.5" width="9.9" height="49.6"></rect> <rect x="198.4" y="198.4" class="st2" width="9.9" height="39.7"></rect> <rect x="218.3" y="198.4" class="st2" width="9.9" height="39.7"></rect> <rect x="188.5" y="198.4" width="49.6" height="9.9"></rect> <rect x="238.1" y="208.3" width="9.9" height="39.7"></rect> <rect x="248" y="248" width="9.9" height="49.6"></rect> <rect x="248" y="347.2" width="9.9" height="9.9"></rect> <rect x="218.3" y="357.2" width="29.8" height="9.9"></rect> <rect x="208.3" y="347.2" width="9.9" height="9.9"></rect> <rect x="198.4" y="327.4" width="9.9" height="19.8"></rect> <rect x="188.5" y="317.5" width="9.9" height="9.9"></rect> <rect x="168.7" y="307.6" width="19.8" height="9.9"></rect> <rect x="158.7" y="297.6" class="st2" width="9.9" height="9.9"></rect> <rect x="148.8" y="277.8" width="9.9" height="29.8"></rect> <rect x="138.9" y="258" width="9.9" height="19.8"></rect> <rect x="129" y="238.1" width="9.9" height="19.8"></rect> <rect x="138.9" y="228.2" width="9.9" height="9.9"></rect> <rect x="148.8" y="238.1" width="19.8" height="9.9"></rect> <rect x="158.7" y="198.4" width="9.9" height="59.5"></rect> <rect x="208.3" y="129" width="9.9" height="9.9"></rect> <rect x="198.4" y="109.1" width="9.9" height="9.9"></rect> <g> <rect x="59.5" y="138.9" width="9.9" height="59.5"></rect> <rect x="39.7" y="138.9" width="9.9" height="59.5"></rect> <polygon points="19.8,168.7 0,168.7 0,178.6 0,238.1 9.9,238.1 9.9,178.6 19.8,178.6 19.8,198.4 29.8,198.4 29.8,178.6 29.8,168.7 29.8,138.9 19.8,138.9 "></polygon> <rect x="79.4" y="138.9" width="9.9" height="99.2"></rect> </g> <polygon class="st3" points="99.2,218.3 99.2,228.2 89.3,228.2 89.3,238.1 79.4,238.1 79.4,138.9 69.4,138.9 69.4,198.4 59.5,198.4 59.5,138.9 49.6,138.9 49.6,198.4 39.7,198.4 39.7,138.9 29.8,138.9 29.8,198.4 19.8,198.4 19.8,178.6 9.9,178.6 9.9,238.1 19.8,238.1 19.8,267.9 29.8,267.9 29.8,307.6 39.7,307.6 49.6,307.6 59.5,307.6 69.4,307.6 79.4,307.6 79.4,277.8 89.3,277.8 89.3,258 99.2,258 99.2,238.1 109.1,238.1 109.1,218.3 "></polygon> <polygon class="st3" points="267.9,317.5 267.9,307.6 258,307.6 258,297.6 248,297.6 248,248 238.1,248 238.1,208.3 228.2,208.3 228.2,238.1 218.3,238.1 218.3,208.3 208.3,208.3 208.3,238.1 198.4,238.1 198.4,208.3 188.5,208.3 188.5,238.1 178.6,238.1 178.6,188.5 168.7,188.5 168.7,178.6 158.7,178.6 158.7,198.4 168.7,198.4 168.7,258 158.7,258 158.7,248 148.8,248 148.8,238.1 138.9,238.1 138.9,258 148.8,258 148.8,277.8 158.7,277.8 158.7,297.6 168.7,297.6 168.7,307.6 178.6,307.6 188.5,307.6 188.5,317.5 198.4,317.5 198.4,327.4 208.3,327.4 208.3,347.2 218.3,347.2 218.3,357.2 228.2,357.2 238.1,357.2 248,357.2 248,347.2 258,347.2 258,337.3 267.9,337.3 267.9,327.4 277.8,327.4 277.8,317.5 "></polygon> </g> </svg> 