<svg xmlns="http://www.w3.org/2000/svg" width="120" height="42" version="1.0"><path fill="#aab2ab" d="M3.14.5l113.35.2c1.59 0 3-.23 3 3.17l-.14 37.33H.28V3.73C.28 2.06.44.51 3.14.51z"/><path d="M117.75 0H2.25C1 0 0 1 0 2.25v39.24c0 .28.23.51.5.51h119a.5.5 0 00.5-.5V2.24C120 1 119 0 117.75 0zM2.25 1.02h115.5c.68 0 1.23.55 1.23 1.23v27.27H36.16a17.76 17.76 0 01-31.1 0H1.03V2.25c0-.68.55-1.23 1.23-1.23z"/><g fill="#fff"><path d="M73.8 32.75c.32 0 .61.03.87.08.26.06.49.15.67.27.19.13.33.3.43.5.1.22.16.48.16.79 0 .33-.08.61-.23.83-.15.23-.38.4-.67.55.4.12.71.32.91.62.2.29.3.64.3 1.06 0 .33-.06.62-.19.87-.13.24-.3.44-.52.6-.22.15-.48.26-.76.34-.28.07-.57.1-.87.1H70.7v-6.61h3.12zm-.18 2.68c.26 0 .48-.07.64-.19.17-.12.25-.32.25-.6a.77.77 0 00-.08-.38.63.63 0 00-.22-.23.95.95 0 00-.32-.12 2.16 2.16 0 00-.38-.03h-1.36v1.55h1.47zm.09 2.8c.14 0 .28 0 .4-.04.14-.02.25-.07.35-.13a.7.7 0 00.24-.27.9.9 0 00.09-.43c0-.34-.1-.58-.3-.72-.18-.15-.44-.22-.75-.22h-1.6v1.82h1.57zM76.5 32.75h1.64l1.55 2.61 1.54-2.61h1.62l-2.46 4.08v2.54h-1.46v-2.58l-2.43-4.04z"/></g><path fill="#fff" d="M34.25 19.6a13.63 13.63 0 01-27.27.02v-.01a13.63 13.63 0 0127.27-.02v.02z"/><path d="M31.7 8.5a15.1 15.1 0 014.54 11.1c0 4.39-1.49 8.05-4.46 11a15.41 15.41 0 01-11.18 4.65 15 15 0 01-10.99-4.62A15.05 15.05 0 015 19.61 15.3 15.3 0 019.6 8.5c3-3.03 6.66-4.54 10.99-4.54A15.1 15.1 0 0131.7 8.5zm-20.05 2.04A12.49 12.49 0 007.8 19.6a12.3 12.3 0 003.8 9 12.34 12.34 0 009.04 3.79c3.5 0 6.53-1.28 9.11-3.83a11.94 11.94 0 003.68-8.96c0-3.57-1.25-6.6-3.74-9.1a12.33 12.33 0 00-9.05-3.73c-3.55 0-6.55 1.25-9 3.76zm6.73 7.54c-.4-.85-.98-1.27-1.76-1.27-1.38 0-2.07.93-2.07 2.78 0 1.86.7 2.78 2.07 2.78.91 0 1.56-.45 1.95-1.35l1.91 1.01a4.42 4.42 0 01-4.1 2.43c-1.4 0-2.53-.43-3.37-1.29a4.86 4.86 0 01-1.27-3.56 4.8 4.8 0 011.3-3.55 4.42 4.42 0 013.27-1.3c1.92 0 3.3.75 4.13 2.27l-2.06 1.05zm8.99 0c-.4-.85-.97-1.27-1.72-1.27-1.41 0-2.11.93-2.11 2.78 0 1.86.7 2.78 2.1 2.78.92 0 1.56-.45 1.92-1.35l1.95 1.01a4.41 4.41 0 01-4.09 2.43c-1.4 0-2.52-.43-3.37-1.29a4.88 4.88 0 01-1.27-3.56c0-1.5.43-2.67 1.3-3.55a4.39 4.39 0 013.26-1.3c1.93 0 3.3.75 4.13 2.27l-2.1 1.05z"/><g transform="matrix(.99377 0 0 .99367 -177.7 0)"><circle cx="255.55" cy="15.31" r="10.81" fill="#fff"/><path d="M258.68 12.19a.75.75 0 00-.75-.76h-4.78a.75.75 0 00-.75.76v4.77h1.33v5.65h3.62v-5.65h1.33v-4.77z"/><circle cx="255.54" cy="9.17" r="1.63"/><path fill-rule="evenodd" d="M255.52 3.4c-3.23 0-5.96 1.14-8.2 3.4a11.41 11.41 0 00-3.45 8.28c0 3.18 1.15 5.93 3.45 8.22 2.3 2.3 5.03 3.44 8.2 3.44 3.22 0 6-1.15 8.36-3.47a11.07 11.07 0 003.33-8.2c0-3.26-1.13-6.02-3.39-8.28a11.3 11.3 0 00-8.3-3.38zm.03 2.1c2.65 0 4.9.94 6.75 2.8a9.15 9.15 0 012.8 6.78 8.9 8.9 0 01-2.74 6.68 9.36 9.36 0 01-6.8 2.85 9.21 9.21 0 01-6.75-2.82 9.16 9.16 0 01-2.84-6.71 9.3 9.3 0 012.87-6.77 9.05 9.05 0 016.71-2.8z" clip-rule="evenodd"/></g></svg>