<?xml version="1.0" encoding="utf-8"?>
<!-- Generator: Adobe Illustrator 23.0.0, SVG Export Plug-In . SVG Version: 6.00 Build 0)  -->
<svg version="1.1" id="Ebene_1" xmlns="http://www.w3.org/2000/svg" xmlns:xlink="http://www.w3.org/1999/xlink" x="0px" y="0px"
	 viewBox="0 0 1024 768" style="enable-background:new 0 0 1024 768;" xml:space="preserve">
<style type="text/css">
	.st0{clip-path:url(#SVGID_2_);fill:#1D1D1B;}
	.st1{fill:#A1C854;}
	.st2{clip-path:url(#SVGID_4_);fill:#C1D98D;}
</style>
<g>
	<defs>
		<rect id="SVGID_1_" x="69" y="65.7" width="893.92" height="653.3"/>
	</defs>
	<clipPath id="SVGID_2_">
		<use xlink:href="#SVGID_1_"  style="overflow:visible;"/>
	</clipPath>
	<path class="st0" d="M946.09,374.7h-42.25c1.75-13.5,9.69-21.13,21.92-21.13C937.35,353.58,944.5,361.2,946.09,374.7
		 M961.65,381.21c0-24.46-14.45-41.3-35.9-41.3c-23.19,0-37.49,16.84-37.49,42.57c0,26.84,14.3,44.79,38.92,44.79
		c18.74,0,32.72-9.37,35.74-26.21l-14.77-3.02c-2.07,9.53-9.85,15.57-20.97,15.57c-14.45,0-22.71-10.17-23.51-26.84h57.5
		C961.34,385.82,961.65,383.44,961.65,381.21 M823.31,368.67c2.54-8.1,10.32-14.61,19.38-14.61c10.96,0,18.11,8.42,18.11,20.65
		v50.83h15.25v-51.94c0-20.81-12.71-33.67-29.23-33.67c-12.39,0-21.6,7.62-26.05,17.47c-4.61-10.32-14.77-17.47-26.84-17.47
		c-11.6,0-19.54,6.51-23.51,15.09v-13.34h-15.25v83.87h15.25v-57.34c2.7-8.1,10.48-14.14,19.38-14.14
		c11.12,0,18.11,8.42,18.11,20.49v50.99h15.41V368.67z M697.3,427.28c10.64,0,20.01-6.04,24.46-14.93v13.18h15.25v-83.87h-15.25
		v57.82c-4.29,8.1-11.44,13.66-20.33,13.66c-11.12,0-18.27-9.05-18.27-21.29v-50.19h-15.25v51.15
		C667.92,414.09,680.78,427.28,697.3,427.28 M609.75,312.59h-15.57v17.79h15.57V312.59z M622.94,330.38h15.57v-17.79h-15.57V330.38z
		 M602.6,402.02c0-7.47,5.4-12.71,15.73-14.61l17.47-3.02v19.7c-4.77,6.51-11.28,10.64-18.74,10.64
		C608.96,414.73,602.6,409.96,602.6,402.02 M581,369.62l14.77,2.7c2.06-11.75,10.01-18.9,22.24-18.9c11.12,0,17.79,6.04,17.79,15.41
		c0,3.34-1.27,4.45-4.29,5.08l-15.25,2.7c-20.33,3.81-28.91,12.55-28.91,25.73c0,14.77,10.17,24.94,25.41,24.94
		c10.32,0,18.9-4.61,23.67-11.44v9.69h14.77V372c0-20.33-13.34-32.24-33.52-32.24C597.84,339.76,584.18,351.35,581,369.62
		 M517.76,328h23.35c11.44,0,17.79,5.4,17.79,15.57c0,10.32-6.51,17.47-17.47,17.47h-23.67V328z M539.36,374.7
		c12.55,0,19.54,6.67,19.54,18.27c0,11.12-6.83,18.9-19.7,18.9h-21.44V374.7H539.36z M574.14,393.92c0-12.71-6.2-21.76-17-26.21
		c10.64-4.13,17-13.02,17-25.1c0-17-13.02-28.27-33.04-28.27h-38.6v111.19h36.22C560.64,425.53,574.14,412.98,574.14,393.92"/>
	<path class="st0" d="M836.86,199.02c0,7.31-5.72,14.93-15.41,20.49l-3.02-3.49c-5.56-6.51-7.94-11.6-7.94-16.68
		c0-7.62,4.92-13.18,13.18-13.18C831.94,186.16,836.86,191.88,836.86,199.02 M844.81,267.96c-6.2,4.45-13.02,6.67-20.49,6.67
		c-13.34,0-23.19-7.78-23.19-19.7c0-9.37,6.35-15.57,15.57-20.49L844.81,267.96z M854.02,278.6l6.51,7.94h18.11l-14.77-17.31
		c8.26-10.17,13.98-23.51,16.2-37.33l-14.14-3.18c-1.75,11.75-5.72,21.76-11.44,29.54l-25.26-29.54
		c13.34-7.62,21.92-18.74,21.92-30.5c0-13.18-10.64-24.62-27.48-24.62c-17.63,0-27.48,12.07-27.48,25.26
		c0,9.05,4.61,16.36,12.71,26.21c-13.02,6.99-23.03,15.57-23.03,30.82c0,18.9,15.88,32.4,37.8,32.4
		C835.59,288.29,845.76,284.64,854.02,278.6 M728.38,254.46c5.56,1.91,8.42,5.24,8.42,9.69c0,6.04-5.24,10.96-13.5,10.96
		c-9.05,0-14.14-6.51-15.57-15.88l-14.14,2.86c2.54,16.36,13.03,26.21,29.7,26.21c16.36,0,28.75-9.85,28.75-24.14
		c0-10.01-6.19-17.15-20.49-22.08l-13.34-4.61c-9.05-3.18-12.71-6.67-12.71-11.91c0-6.83,6.35-11.6,16.36-11.6
		c11.12,0,18.27,6.67,20.33,19.38l14.77-2.7c-3.02-19.22-15.72-29.7-35.1-29.7c-18.58,0-31.61,9.85-31.61,24.62
		c0,11.28,7.47,18.27,24.62,24.14L728.38,254.46z M676.91,272.41h-6.67c-9.37,0-14.45-4.77-14.45-14.77v-41.3h26.84v-13.66h-26.84
		v-19.7h-11.44l-1.27,10.64c-0.79,6.19-4.45,9.05-11.75,9.05h-6.35v13.66h15.57v41.3c0,18.74,10.96,29.54,28.75,29.54
		c3.02,0,5.56-0.32,7.62-0.64V272.41z M611.31,170.27h-16.52v17.79h16.52V170.27z M595.43,286.54h15.25v-83.87h-15.25V286.54z
		 M517.76,189.02h23.35c11.44,0,17.79,5.4,17.79,15.57c0,10.32-6.51,17.47-17.47,17.47h-23.67V189.02z M539.36,235.72
		c12.55,0,19.54,6.67,19.54,18.27c0,11.12-6.83,18.9-19.7,18.9h-21.44v-37.17H539.36z M574.14,254.94c0-12.71-6.2-21.76-17-26.21
		c10.64-4.13,17-13.02,17-25.1c0-17-13.02-28.27-33.04-28.27h-38.6v111.19h36.22C560.64,286.54,574.14,274,574.14,254.94"/>
	<path class="st0" d="M849.71,609.75h-2.27c-3.18,0-4.91-1.62-4.91-5.02V590.7h9.12v-4.64h-9.12v-6.69h-3.88l-0.43,3.62
		c-0.27,2.1-1.51,3.08-3.99,3.08h-2.16v4.64h5.29v14.03c0,6.37,3.72,10.04,9.77,10.04c1.03,0,1.89-0.11,2.59-0.22V609.75z
		 M827.43,575.06h-5.61v6.04h5.61V575.06z M822.03,614.55h5.18v-28.49h-5.18V614.55z M810.59,597.29h-14.35
		c0.59-4.59,3.29-7.18,7.45-7.18C807.62,590.11,810.05,592.7,810.59,597.29 M815.88,599.5c0-8.31-4.91-14.03-12.19-14.03
		c-7.88,0-12.73,5.72-12.73,14.46c0,9.12,4.86,15.21,13.22,15.21c6.37,0,11.11-3.18,12.14-8.9l-5.02-1.02
		c-0.7,3.24-3.35,5.29-7.12,5.29c-4.91,0-7.72-3.45-7.99-9.12h19.53C815.77,601.06,815.88,600.25,815.88,599.5 M772.77,614.55
		v-12.68l9.12,12.68h5.83l-9.77-13.54l12.14-14.94h-5.99l-11.33,13.92v-24.93h-5.18v39.49H772.77z M757.45,618.71
		c0,2.91-3.24,4.96-8.85,4.96c-5.23,0-8.15-1.29-8.15-3.99c0-2.59,2.59-4.1,5.83-4.1h7.55C756.1,615.58,757.45,616.82,757.45,618.71
		 M748.76,589.89c3.67,0,6.53,2.27,6.53,6.26c0,4.21-2.86,6.31-6.53,6.31c-3.72,0-6.53-2.1-6.53-6.31
		C742.23,592.16,745.04,589.89,748.76,589.89 M748.76,628.09c7.88,0,13.87-3.18,13.87-9.77c0-4.64-3.02-7.39-8.63-7.39h-7.55
		c-1.83,0-3.02-0.81-3.02-2.1c0-0.92,0.65-1.73,1.78-2.37c1.13,0.27,2.32,0.43,3.56,0.43c6.47,0,11.71-3.94,11.71-10.74
		c0-3.4-1.35-6.1-3.45-7.93l4.32-7.12h-5.93l-2.1,5.07c-1.4-0.49-2.91-0.7-4.53-0.7c-6.47,0-11.71,3.88-11.71,10.68
		c0,4.32,2.1,7.5,5.29,9.23c-2.16,0.97-3.56,2.81-3.56,4.91c0,1.51,0.76,2.91,2.1,3.88c-3.13,1.24-4.75,3.51-4.75,6.58
		C736.14,625.56,740.56,628.09,748.76,628.09 M730.96,575.06h-5.61v6.04h5.61V575.06z M725.56,614.55h5.18v-28.49h-5.18V614.55z
		 M718.76,609.75h-2.27c-3.18,0-4.91-1.62-4.91-5.02V590.7h9.12v-4.64h-9.12v-6.69h-3.88l-0.43,3.62c-0.27,2.1-1.51,3.08-3.99,3.08
		h-2.16v4.64h5.29v14.03c0,6.37,3.72,10.04,9.77,10.04c1.03,0,1.89-0.11,2.59-0.22V609.75z M691.09,614.55h5.18v-39.49h-5.18V614.55
		z M671.82,601.6l5.93-1.02v6.69c-1.62,2.21-3.83,3.62-6.37,3.62c-2.75,0-4.91-1.62-4.91-4.32
		C666.48,604.03,668.32,602.25,671.82,601.6 M659.15,595.56l5.02,0.92c0.7-3.99,3.4-6.42,7.55-6.42c3.78,0,6.04,2.05,6.04,5.23
		c0,1.13-0.43,1.51-1.46,1.73l-5.18,0.92c-6.91,1.29-9.82,4.26-9.82,8.74c0,5.02,3.45,8.47,8.63,8.47c3.51,0,6.42-1.56,8.04-3.88
		v3.29h5.02v-18.18c0-6.91-4.53-10.95-11.38-10.95C664.86,585.42,660.22,589.35,659.15,595.56 M630.77,575.06v39.49h5.18v-19.32
		c0.92-2.7,3.56-4.8,6.91-4.8c4.1,0,6.26,3.08,6.26,7.45v16.67h5.23V597.5c0-7.55-4.32-11.87-10.14-11.87c-3.99,0-6.91,2-8.26,4.91
		v-15.48H630.77z M599.1,575.06v39.49h5.18v-19.32c0.92-2.7,3.56-4.8,6.91-4.8c4.1,0,6.26,3.08,6.26,7.45v16.67h5.23V597.5
		c0-7.55-4.32-11.87-10.14-11.87c-3.99,0-6.91,2-8.25,4.91v-15.48H599.1z M581.13,610.5c-4.96,0-7.93-4.26-7.93-10.41
		c0-5.99,2.97-9.98,8.15-9.98c3.78,0,6.74,2.27,7.45,6.37l5.02-0.92c-0.86-6.31-5.72-10.09-12.46-10.09
		c-8.31,0-13.33,5.72-13.33,14.62c0,9.17,5.02,15.05,13.11,15.05c5.88,0,10.25-3.29,11.17-8.9l-5.02-0.92
		C586.79,608.35,584.37,610.5,581.13,610.5 M551.24,601.6l5.93-1.02v6.69c-1.62,2.21-3.83,3.62-6.37,3.62
		c-2.75,0-4.91-1.62-4.91-4.32C545.9,604.03,547.73,602.25,551.24,601.6 M538.56,595.56l5.02,0.92c0.7-3.99,3.4-6.42,7.55-6.42
		c3.78,0,6.04,2.05,6.04,5.23c0,1.13-0.43,1.51-1.46,1.73l-5.18,0.92c-6.91,1.29-9.82,4.26-9.82,8.74c0,5.02,3.45,8.47,8.63,8.47
		c3.51,0,6.42-1.56,8.04-3.88v3.29h5.02v-18.18c0-6.91-4.53-10.95-11.38-10.95C544.28,585.42,539.64,589.35,538.56,595.56
		 M507.7,576.78h-5.23v37.77h5.13v-29.78l20.39,29.78h5.18v-37.77h-5.07v29.78L507.7,576.78z"/>
	<path class="st0" d="M931.51,538.65c0-6.31,2.86-10.04,7.82-10.04c3.78,0,6.31,2.16,7.5,4.48v11.06c-1.19,2.37-3.72,4.53-7.5,4.53
		C934.37,548.68,931.51,544.96,931.51,538.65 M952.02,513.39h-5.18v14.57c-1.73-2.48-4.42-4.15-8.31-4.15
		c-7.12,0-12.19,5.61-12.19,14.84c0,9.23,5.07,14.84,12.09,14.84c3.67,0,6.47-1.51,8.42-4.15v3.56h5.18V513.39z M897.15,524.4v28.49
		h5.18v-19.32c0.92-2.7,3.56-4.8,6.91-4.8c4.1,0,6.26,3.08,6.26,7.45v16.67h5.23v-17.05c0-7.55-4.32-11.87-10.14-11.87
		c-3.99,0-6.91,2-8.25,4.91v-4.48H897.15z M875.35,553.48c3.62,0,6.8-2.05,8.31-5.07v4.48h5.18V524.4h-5.18v19.64
		c-1.46,2.75-3.88,4.64-6.91,4.64c-3.78,0-6.2-3.08-6.2-7.23V524.4h-5.18v17.37C865.37,549,869.74,553.48,875.35,553.48
		 M843.07,557.04c0,2.91-3.24,4.96-8.85,4.96c-5.23,0-8.15-1.29-8.15-3.99c0-2.59,2.59-4.1,5.83-4.1h7.55
		C841.72,553.91,843.07,555.16,843.07,557.04 M834.39,528.23c3.67,0,6.53,2.27,6.53,6.26c0,4.21-2.86,6.31-6.53,6.31
		c-3.72,0-6.53-2.1-6.53-6.31C827.86,530.5,830.66,528.23,834.39,528.23 M834.39,566.43c7.88,0,13.87-3.18,13.87-9.77
		c0-4.64-3.02-7.39-8.63-7.39h-7.55c-1.83,0-3.02-0.81-3.02-2.1c0-0.92,0.65-1.73,1.78-2.37c1.13,0.27,2.32,0.43,3.56,0.43
		c6.47,0,11.71-3.94,11.71-10.74c0-3.4-1.35-6.1-3.45-7.93l4.32-7.12h-5.93l-2.1,5.07c-1.4-0.49-2.91-0.7-4.53-0.7
		c-6.47,0-11.71,3.88-11.71,10.68c0,4.32,2.1,7.5,5.29,9.23c-2.16,0.97-3.56,2.81-3.56,4.91c0,1.51,0.76,2.91,2.1,3.88
		c-3.13,1.24-4.75,3.51-4.75,6.58C821.76,563.9,826.19,566.43,834.39,566.43 M793,524.4v28.49h5.18v-19.32
		c0.92-2.7,3.56-4.8,6.91-4.8c4.1,0,6.26,3.08,6.26,7.45v16.67h5.23v-17.05c0-7.55-4.32-11.87-10.14-11.87c-3.99,0-6.91,2-8.25,4.91
		v-4.48H793z M771.21,553.48c3.62,0,6.8-2.05,8.31-5.07v4.48h5.18V524.4h-5.18v19.64c-1.46,2.75-3.88,4.64-6.91,4.64
		c-3.78,0-6.2-3.08-6.2-7.23V524.4h-5.18v17.37C761.23,549,765.6,553.48,771.21,553.48 M741.69,524.4v28.49h5.18v-17.48
		c1.24-3.88,3.56-6.37,7.55-6.37h2.05v-4.64c-0.59-0.11-1.4-0.22-2.16-0.22c-4.05,0-6.26,2.43-7.45,5.67v-5.45H741.69z
		 M730.26,535.62H715.9c0.59-4.59,3.29-7.18,7.45-7.18C727.29,528.45,729.72,531.04,730.26,535.62 M735.54,537.84
		c0-8.31-4.91-14.03-12.19-14.03c-7.88,0-12.73,5.72-12.73,14.46c0,9.12,4.86,15.21,13.22,15.21c6.37,0,11.11-3.18,12.14-8.9
		l-5.02-1.02c-0.7,3.24-3.34,5.29-7.12,5.29c-4.91,0-7.72-3.45-7.98-9.12h19.53C735.44,539.4,735.54,538.59,735.54,537.84
		 M705.01,513.39h-5.61v6.04h5.61V513.39z M699.61,552.89h5.18V524.4h-5.18V552.89z M685.04,541.99c1.89,0.65,2.86,1.78,2.86,3.29
		c0,2.05-1.78,3.72-4.59,3.72c-3.08,0-4.8-2.21-5.29-5.4l-4.8,0.97c0.86,5.56,4.42,8.9,10.09,8.9c5.56,0,9.77-3.34,9.77-8.2
		c0-3.4-2.1-5.83-6.96-7.5l-4.53-1.56c-3.08-1.08-4.32-2.27-4.32-4.05c0-2.32,2.16-3.94,5.56-3.94c3.78,0,6.2,2.27,6.91,6.58
		l5.02-0.92c-1.03-6.53-5.34-10.09-11.92-10.09c-6.31,0-10.74,3.35-10.74,8.36c0,3.83,2.54,6.2,8.36,8.2L685.04,541.99z
		 M666.7,513.39h-5.61v6.04h5.61V513.39z M661.3,552.89h5.18V524.4h-5.18V552.89z M647.81,552.89h5.18v-39.49h-5.18V552.89z
		 M628.55,539.94l5.93-1.03v6.69c-1.62,2.21-3.83,3.62-6.37,3.62c-2.75,0-4.91-1.62-4.91-4.32
		C623.21,542.37,625.05,540.59,628.55,539.94 M615.87,533.9l5.02,0.92c0.7-3.99,3.4-6.42,7.55-6.42c3.78,0,6.04,2.05,6.04,5.23
		c0,1.13-0.43,1.51-1.46,1.73l-5.18,0.92c-6.91,1.29-9.82,4.26-9.82,8.74c0,5.02,3.45,8.47,8.63,8.47c3.51,0,6.42-1.56,8.04-3.88
		v3.29h5.02v-18.18c0-6.91-4.53-10.95-11.38-10.95C621.59,523.75,616.95,527.69,615.87,533.9 M611.99,548.09h-2.27
		c-3.18,0-4.91-1.62-4.91-5.02v-14.03h9.12v-4.64h-9.12v-6.69h-3.88l-0.43,3.62c-0.27,2.1-1.51,3.08-3.99,3.08h-2.16v4.64h5.29
		v14.03c0,6.37,3.72,10.04,9.77,10.04c1.03,0,1.89-0.11,2.59-0.22V548.09z M589.71,513.39h-5.61v6.04h5.61V513.39z M584.31,552.89
		h5.18V524.4h-5.18V552.89z M571.63,557.04c0,2.91-3.24,4.96-8.85,4.96c-5.23,0-8.15-1.29-8.15-3.99c0-2.59,2.59-4.1,5.83-4.1h7.55
		C570.28,553.91,571.63,555.16,571.63,557.04 M562.95,528.23c3.67,0,6.53,2.27,6.53,6.26c0,4.21-2.86,6.31-6.53,6.31
		c-3.72,0-6.53-2.1-6.53-6.31C556.42,530.5,559.22,528.23,562.95,528.23 M562.95,566.43c7.88,0,13.87-3.18,13.87-9.77
		c0-4.64-3.02-7.39-8.63-7.39h-7.55c-1.83,0-3.02-0.81-3.02-2.1c0-0.92,0.65-1.73,1.78-2.37c1.13,0.27,2.32,0.43,3.56,0.43
		c6.47,0,11.71-3.94,11.71-10.74c0-3.4-1.35-6.1-3.45-7.93l4.32-7.12h-5.93l-2.1,5.07c-1.4-0.49-2.91-0.7-4.53-0.7
		c-6.47,0-11.71,3.88-11.71,10.68c0,4.32,2.1,7.5,5.29,9.23c-2.16,0.97-3.56,2.81-3.56,4.91c0,1.51,0.76,2.91,2.1,3.88
		c-3.13,1.24-4.75,3.51-4.75,6.58C550.32,563.9,554.75,566.43,562.95,566.43 M545.14,513.39h-5.61v6.04h5.61V513.39z M539.75,552.89
		h5.18V524.4h-5.18V552.89z M515.47,519.92c7.88,0,13.06,5.45,13.06,13.97c0,8.69-5.18,14.19-13.06,14.19h-7.82v-28.16H515.47z
		 M502.46,515.12v37.77h12.84c11.01,0,18.4-7.39,18.4-18.99c0-11.6-7.18-18.78-18.4-18.78H502.46z"/>
	<path class="st0" d="M901.5,462.74v28.49h5.18v-17.48c1.24-3.88,3.56-6.37,7.55-6.37h2.05v-4.64c-0.59-0.11-1.4-0.22-2.16-0.22
		c-4.05,0-6.26,2.43-7.45,5.67v-5.45H901.5z M873.72,458.91h5.29v-6.04h-5.29V458.91z M888.77,452.87h-5.29v6.04h5.29V452.87z
		 M869.73,480.11c0,7.23,4.37,11.71,9.98,11.71c3.62,0,6.8-2.05,8.31-5.07v4.48h5.18v-28.49h-5.18v19.64
		c-1.46,2.75-3.88,4.64-6.91,4.64c-3.78,0-6.2-3.08-6.2-7.23v-17.05h-5.18V480.11z M856.99,462.74v-1.03c0-3.99,1.62-5.72,6.1-5.72
		h2.86v-4.26c-1.29-0.22-2.54-0.32-3.72-0.32c-7.61,0-10.41,4.1-10.41,10.47v0.86h-5.23v4.64h5.23v23.85h5.18v-23.85h7.82v-4.64
		H856.99z M809.73,486.8v4.42h21.04v-4.8h-14.62l15.05-19.26v-4.42h-21.47v4.8h15.05L809.73,486.8z M780.65,462.74v28.49h5.18
		v-19.32c0.92-2.7,3.56-4.8,6.91-4.8c4.1,0,6.26,3.08,6.26,7.45v16.67h5.23v-17.05c0-7.55-4.32-11.87-10.14-11.87
		c-3.99,0-6.91,2-8.25,4.91v-4.48H780.65z M769.21,473.96h-14.35c0.59-4.59,3.29-7.18,7.45-7.18
		C766.24,466.79,768.67,469.38,769.21,473.96 M774.5,476.17c0-8.31-4.91-14.03-12.19-14.03c-7.88,0-12.73,5.72-12.73,14.46
		c0,9.12,4.86,15.21,13.22,15.21c6.37,0,11.11-3.18,12.14-8.9l-5.02-1.02c-0.7,3.24-3.35,5.29-7.12,5.29
		c-4.91,0-7.72-3.45-7.99-9.12h19.53C774.39,477.74,774.5,476.93,774.5,476.17 M732.74,462.74v28.49h5.18v-17.48
		c1.24-3.88,3.56-6.37,7.55-6.37h2.05v-4.64c-0.59-0.11-1.4-0.22-2.16-0.22c-4.05,0-6.26,2.43-7.45,5.67v-5.45H732.74z
		 M721.3,473.96h-14.35c0.59-4.59,3.29-7.18,7.45-7.18C718.33,466.79,720.76,469.38,721.3,473.96 M726.59,476.17
		c0-8.31-4.91-14.03-12.19-14.03c-7.88,0-12.73,5.72-12.73,14.46c0,9.12,4.86,15.21,13.22,15.21c6.37,0,11.11-3.18,12.14-8.9
		l-5.02-1.02c-0.7,3.24-3.35,5.29-7.12,5.29c-4.91,0-7.72-3.45-7.99-9.12h19.53C726.48,477.74,726.59,476.93,726.59,476.17
		 M691.84,462.74v-1.03c0-3.99,1.62-5.72,6.1-5.72h2.86v-4.26c-1.29-0.22-2.54-0.32-3.72-0.32c-7.61,0-10.41,4.1-10.41,10.47v0.86
		h-5.23v4.64h5.23v23.85h5.18v-23.85h7.82v-4.64H691.84z M653.21,462.74v28.49h5.18v-19.32c0.92-2.7,3.56-4.8,6.91-4.8
		c4.1,0,6.26,3.08,6.26,7.45v16.67h5.23v-17.05c0-7.55-4.32-11.87-10.14-11.87c-3.99,0-6.91,2-8.26,4.91v-4.48H653.21z
		 M642.2,476.77c0,6.26-3.67,10.25-8.47,10.25c-4.86,0-8.69-3.99-8.69-10.25c0-5.83,3.83-9.82,8.69-9.82
		C638.54,466.95,642.2,470.94,642.2,476.77 M647.38,476.77c0-8.79-5.88-14.62-13.65-14.62c-7.82,0-13.87,5.83-13.87,14.62
		c0,9.17,6.04,15.05,13.87,15.05C641.5,491.82,647.38,485.94,647.38,476.77 M595.32,453.46v37.77h5.18v-16.94l12.19,16.94h6.04
		l-13-17.8l15.92-19.96h-6.15l-15,19.05v-19.05H595.32z M570.39,473.96h-14.35c0.59-4.59,3.29-7.18,7.45-7.18
		C567.43,466.79,569.85,469.38,570.39,473.96 M575.68,476.17c0-8.31-4.91-14.03-12.19-14.03c-7.88,0-12.73,5.72-12.73,14.46
		c0,9.12,4.86,15.21,13.22,15.21c6.37,0,11.11-3.18,12.14-8.9l-5.02-1.02c-0.7,3.24-3.35,5.29-7.12,5.29
		c-4.91,0-7.72-3.45-7.99-9.12h19.53C575.57,477.74,575.68,476.93,575.68,476.17 M545.14,451.73h-5.61v6.04h5.61V451.73z
		 M539.75,491.23h5.18v-28.49h-5.18V491.23z M515.47,458.26c7.88,0,13.06,5.45,13.06,13.97c0,8.69-5.18,14.19-13.06,14.19h-7.82
		v-28.16H515.47z M502.46,453.46v37.77h12.84c11.01,0,18.4-7.39,18.4-18.99c0-11.6-7.18-18.78-18.4-18.78H502.46z"/>
</g>
<rect x="227.69" y="605.58" class="st1" width="5.73" height="94.31"/>
<g>
	<defs>
		<rect id="SVGID_3_" x="69" y="65.7" width="893.92" height="653.3"/>
	</defs>
	<clipPath id="SVGID_4_">
		<use xlink:href="#SVGID_3_"  style="overflow:visible;"/>
	</clipPath>
	<path class="st2" d="M227.69,614.58C137.11,609.02,69,527.24,69,422.47c0-130.09,80.39-221.98,158.69-301.88V614.58z"/>
</g>
<path class="st1" d="M282.58,395.03h54.89v54.89h-54.89V395.03z M227.69,175.47v439.1h54.89v-54.89h54.89V504.8h54.89v-54.89h54.89
	v-54.89h-54.89v-54.89h-54.89v-54.89h-54.89v-54.89h54.89v54.89h54.89v-54.89h-54.89v-54.89H227.69z M337.46,175.47h54.89v-54.89
	h-54.89V175.47z M227.69,120.59h54.89V65.7h-54.89V120.59z M392.35,120.59h54.89V65.7h-54.89V120.59z"/>
<g>
	<defs>
		<rect id="SVGID_5_" x="69" y="65.7" width="893.92" height="653.3"/>
	</defs>
	<clipPath id="SVGID_6_">
		<use xlink:href="#SVGID_5_"  style="overflow:visible;"/>
	</clipPath>
</g>
</svg>
