<svg width="797" height="168" viewBox="0 0 797 168" fill="none" xmlns="http://www.w3.org/2000/svg">
<path fill-rule="evenodd" clip-rule="evenodd" d="M16.089 0H111.973L137.049 46.6227L116.058 83.3858L100.442 97.5827L62.2412 104.659L62.2412 135.172L75.8407 140.81V154.836L59.7517 168H0V153.476L13.5995 142.35V33.2715L0 27.6333V13.1637L16.089 0ZM72.8432 152.627H18.1228V142.813L31.7222 137.174V18.8941L18.1228 13.2559V2.99754H110.182L133.622 46.5793L113.903 81.1144L76.124 89.3631H59.2437L59.2437 137.174L72.8432 142.813V152.627ZM75.9371 15.1752L100.922 27.4067L109.701 46.5396L100.938 62.9006L75.9163 76.4946L59.2437 72.7498V18.999L75.9371 15.1752ZM86.656 67.2485L91.2286 58.8077L83.5184 42.0039L62.2412 31.5876V70.3508L75.4746 73.3232L86.656 67.2485Z" fill="black"/>
<path d="M425.546 166.411H394.848V90.9089H425.744C448.097 90.9089 460.515 101.042 460.515 128.461C460.515 155.284 448.792 166.51 425.546 166.411ZM409.65 153.198H423.459C437.268 153.198 444.719 147.833 444.719 128.66C444.719 110.579 438.162 104.122 423.459 104.122H409.65V153.198Z" fill="black"/>
<path d="M320.163 166.411V90.9089H334.469L366.855 142.171V90.9089H381.757V166.411H366.954L334.966 116.937V166.411H320.163Z" fill="black"/>
<path d="M276.276 168C252.136 168 245.479 154.191 245.479 134.62V90.9089H260.282V129.355C260.282 144.356 261.275 154.787 276.276 154.787C291.277 154.787 292.171 144.356 292.171 129.355V90.9089H307.073V134.62C307.073 154.688 300.119 168 276.276 168Z" fill="black"/>
<path d="M232.454 105.612H194.703V120.812H232.046V134.521H194.703V166.411H180V90.9091H232.454V105.612Z" fill="black"/>
<path d="M756.132 62.3939H796.565V77.0968H741.429V1.59521H794.877V16.2982H756.132V31.4978H791.4V45.2073H756.132V62.3939Z" fill="black"/>
<path d="M677.4 77.0968V1.59521H706.607C721.707 1.59521 732.039 9.34406 732.039 24.5437C732.039 39.5447 721.509 47.4922 705.514 47.4922H692.202V77.0968H677.4ZM692.202 34.4781H703.428C710.879 34.4781 716.541 31.7958 716.541 24.7424C716.541 17.987 711.276 14.51 703.428 14.51H692.202V34.4781Z" fill="black"/>
<path d="M626.571 77.0968V50.7706L600.344 1.59521H616.836L634.022 37.4585L651.109 1.59521H667.6L641.374 50.7706V77.0968H626.571Z" fill="black"/>
<path d="M595.193 16.2982H572.344V77.0968H557.541V16.2982H534.692V1.59521H595.193V16.2982Z" fill="black"/>
<path d="M492.534 78.6806C468.393 78.6806 454.485 61.5934 454.485 39.3403C454.485 17.0872 468.393 0 492.534 0C516.575 0 530.483 17.0872 530.483 39.3403C530.483 61.5934 516.575 78.6806 492.534 78.6806ZM492.434 65.4678C506.74 65.4678 514.489 53.0498 514.489 39.3403C514.489 25.6308 506.74 13.2128 492.434 13.2128C478.129 13.2128 470.38 25.6308 470.38 39.3403C470.38 53.0498 478.129 65.4678 492.434 65.4678Z" fill="black"/>
<path d="M450.336 16.2982H427.487V77.0968H412.684V16.2982H389.835V1.59521H450.336V16.2982Z" fill="black"/>
<path d="M347.685 78.6806C323.544 78.6806 309.636 61.5934 309.636 39.3403C309.636 17.0872 323.544 0 347.685 0C371.726 0 385.634 17.0872 385.634 39.3403C385.634 61.5934 371.726 78.6806 347.685 78.6806ZM347.585 65.4678C361.891 65.4678 369.64 53.0498 369.64 39.3403C369.64 25.6308 361.891 13.2128 347.585 13.2128C333.28 13.2128 325.531 25.6308 325.531 39.3403C325.531 53.0498 333.28 65.4678 347.585 65.4678Z" fill="black"/>
<path d="M245.488 77.0968V1.59521H273.801C289.696 1.59521 300.128 9.14538 300.128 23.5503C300.128 36.8624 290.69 43.7172 276.881 45.108L304.399 77.0968H286.319L260.291 46.2008V77.0968H245.488ZM260.291 33.584H272.212C278.471 33.584 284.531 31.0011 284.531 24.2457C284.531 17.7883 279.265 14.51 271.516 14.51H260.291V33.584Z" fill="black"/>
<path d="M180 77.0968V1.59521H209.207C224.308 1.59521 234.639 9.34406 234.639 24.5437C234.639 39.5447 224.109 47.4922 208.114 47.4922H194.802V77.0968H180ZM194.802 34.4781H206.028C213.479 34.4781 219.142 31.7958 219.142 24.7424C219.142 17.987 213.876 14.51 206.028 14.51H194.802V34.4781Z" fill="black"/>
</svg>
