<svg width="138" height="168" viewBox="0 0 138 168" fill="none" xmlns="http://www.w3.org/2000/svg">
<path fill-rule="evenodd" clip-rule="evenodd" d="M16.089 0H111.973L137.049 46.6227L116.058 83.3858L100.442 97.5827L62.2412 104.659L62.2412 135.172L75.8407 140.81V154.836L59.7517 168H0V153.476L13.5995 142.35V33.2715L0 27.6333V13.1637L16.089 0ZM72.8432 152.627H18.1228V142.813L31.7222 137.174V18.8941L18.1228 13.2559V2.99754H110.182L133.622 46.5793L113.903 81.1144L76.124 89.3631H59.2437L59.2437 137.174L72.8432 142.813V152.627ZM75.9371 15.1752L100.922 27.4067L109.701 46.5396L100.938 62.9006L75.9163 76.4946L59.2437 72.7498V18.999L75.9371 15.1752ZM86.656 67.2485L91.2286 58.8077L83.5184 42.0039L62.2412 31.5876V70.3508L75.4746 73.3232L86.656 67.2485Z" fill="black"/>
</svg>
