<svg xmlns="http://www.w3.org/2000/svg" width="568" height="222" fill="none"><path d="M323.691 121.8v16.128h-59.76V121.8h20.16V68.88a121.6 121.6 0 01.288-8.208l-11.952 9.936c-1.056.816-2.112 1.32-3.168 1.512a9.648 9.648 0 01-2.88 0 7.87 7.87 0 01-2.448-.936c-.72-.48-1.248-.96-1.584-1.44l-7.056-9.36 32.688-27.432h18.432V121.8h17.28zm74.1-36.36c0 9.168-.984 17.112-2.952 23.832-1.968 6.72-4.704 12.288-8.208 16.704-3.456 4.416-7.584 7.704-12.384 9.864-4.752 2.16-9.912 3.24-15.48 3.24s-10.728-1.08-15.48-3.24c-4.704-2.16-8.784-5.448-12.24-9.864-3.456-4.416-6.168-9.984-8.136-16.704-1.92-6.72-2.88-14.664-2.88-23.832 0-9.168.96-17.112 2.88-23.832 1.968-6.72 4.68-12.288 8.136-16.704 3.456-4.416 7.536-7.68 12.24-9.792 4.752-2.16 9.912-3.24 15.48-3.24s10.728 1.08 15.48 3.24c4.8 2.112 8.928 5.376 12.384 9.792 3.504 4.416 6.24 9.984 8.208 16.704 1.968 6.72 2.952 14.664 2.952 23.832zm-23.04 0c0-7.248-.456-13.176-1.368-17.784-.912-4.656-2.136-8.304-3.672-10.944-1.488-2.64-3.192-4.44-5.112-5.4-1.92-1.008-3.864-1.512-5.832-1.512s-3.912.504-5.832 1.512c-1.872.96-3.552 2.76-5.04 5.4-1.44 2.64-2.616 6.288-3.528 10.944-.864 4.608-1.296 10.536-1.296 17.784 0 7.296.432 13.248 1.296 17.856.912 4.608 2.088 8.256 3.528 10.944 1.488 2.64 3.168 4.464 5.04 5.472 1.92.96 3.864 1.44 5.832 1.44s3.912-.48 5.832-1.44c1.92-1.008 3.624-2.832 5.112-5.472 1.536-2.688 2.76-6.336 3.672-10.944.912-4.608 1.368-10.56 1.368-17.856zM469.262 110.955c0 3.898-.679 7.524-2.035 10.878-1.332 3.355-3.219 6.278-5.661 8.769-2.442 2.467-5.39 4.403-8.843 5.809-3.429 1.406-7.24 2.109-11.433 2.109-4.194 0-8.017-.703-11.47-2.109-3.454-1.406-6.414-3.342-8.88-5.809-2.442-2.491-4.342-5.414-5.698-8.769-1.332-3.354-1.998-6.98-1.998-10.878 0-3.897.666-7.523 1.998-10.878 1.356-3.354 3.256-6.265 5.698-8.732 2.466-2.466 5.426-4.403 8.88-5.809 3.453-1.406 7.276-2.109 11.47-2.109 4.193 0 8.004.716 11.433 2.146 3.453 1.406 6.401 3.343 8.843 5.81 2.442 2.466 4.329 5.377 5.661 8.731 1.356 3.355 2.035 6.969 2.035 10.841zm-12.802 0c0-2.664-.346-5.056-1.036-7.178-.691-2.146-1.69-3.959-2.997-5.439-1.283-1.48-2.862-2.614-4.736-3.404-1.875-.79-4.009-1.184-6.401-1.184-2.418 0-4.576.395-6.475 1.184-1.875.79-3.466 1.924-4.773 3.404-1.283 1.48-2.27 3.293-2.96 5.439-.691 2.122-1.036 4.514-1.036 7.178 0 2.689.345 5.106 1.036 7.252.69 2.122 1.677 3.922 2.96 5.402 1.307 1.48 2.898 2.615 4.773 3.404 1.899.765 4.057 1.147 6.475 1.147 2.392 0 4.526-.382 6.401-1.147 1.874-.789 3.453-1.924 4.736-3.404 1.307-1.48 2.306-3.28 2.997-5.402.69-2.146 1.036-4.563 1.036-7.252zm32.667-5.106h1.998c1.85 0 3.182-.579 3.996-1.739l12.136-17.612c.716-.937 1.48-1.578 2.294-1.924.839-.37 1.875-.555 3.108-.555h10.878l-15.984 21.793c-1.134 1.505-2.355 2.59-3.663 3.256a9 9 0 012.553 1.443c.765.617 1.48 1.419 2.146 2.405l16.28 25.012h-11.174c-.715 0-1.332-.049-1.85-.148a4.66 4.66 0 01-1.295-.444 4.018 4.018 0 01-.962-.703 8.3 8.3 0 01-.777-.999l-12.21-18.759c-.444-.69-1.011-1.171-1.702-1.443-.666-.296-1.578-.444-2.738-.444h-3.034v22.94h-12.506V84.019h12.506v21.83zm52.322-12.21v13.653h18.426v9.657h-18.426v20.979h-12.58V84.019h34.706v9.62h-22.126zM431.127 58.928c0 1.92-.24 3.648-.72 5.184s-1.184 2.84-2.112 3.912c-.912 1.056-2.056 1.872-3.432 2.448-1.36.56-2.928.84-4.704.84-1.6 0-3.248-.224-4.944-.672l.288-3.024c.032-.288.136-.52.312-.696.192-.192.472-.288.84-.288.272 0 .64.072 1.104.216.48.128 1.104.192 1.872.192 1.024 0 1.928-.152 2.712-.456a4.872 4.872 0 002.016-1.416c.544-.656.952-1.488 1.224-2.496.288-1.008.432-2.216.432-3.624V36.464h5.112v22.464zm26.018-.84l-5.112-13.368c-.368-.912-.736-2.064-1.104-3.456-.176.688-.36 1.328-.552 1.92-.176.592-.352 1.12-.528 1.584l-5.088 13.32h12.384zm10.104 12.84h-3.936c-.448 0-.816-.112-1.104-.336a1.888 1.888 0 01-.624-.864l-3.048-7.992h-15.192l-3.048 7.992c-.112.304-.32.584-.624.84-.304.24-.672.36-1.104.36h-3.936l13.728-34.464h5.16l13.728 34.464zm32.527-34.464v34.464h-5.112V55.4h-17.976v15.528h-5.136V36.464h5.136V51.68h17.976V36.464h5.112zm18.294 16.608c1.312 0 2.464-.16 3.456-.48 1.008-.32 1.848-.768 2.52-1.344a5.694 5.694 0 001.512-2.088c.336-.816.504-1.712.504-2.688 0-1.984-.656-3.48-1.968-4.488-1.296-1.008-3.248-1.512-5.856-1.512h-4.824v12.6h4.656zm16.08 17.856h-4.56c-.912 0-1.576-.36-1.992-1.08l-8.52-11.952c-.272-.4-.568-.68-.888-.84-.32-.176-.8-.264-1.44-.264h-3.336v14.136h-5.112V36.464h9.936c2.224 0 4.136.232 5.736.696 1.616.448 2.944 1.096 3.984 1.944 1.056.832 1.832 1.84 2.328 3.024.512 1.184.768 2.512.768 3.984 0 1.2-.184 2.328-.552 3.384a8.899 8.899 0 01-1.632 2.856c-.704.832-1.568 1.552-2.592 2.16-1.024.608-2.184 1.072-3.48 1.392.64.384 1.192.92 1.656 1.608l9.696 13.416zm25.817-4.152l-.024 4.152h-21.36V36.464h21.36v4.152h-16.224v10.92h13.056v4.008h-13.056v11.232h16.248z" fill="#fff"/><path d="M172.193 110.928c0 33.706-27.324 61.03-61.029 61.03-33.706 0-61.03-27.324-61.03-61.03s27.324-61.03 61.03-61.03c33.705 0 61.029 27.324 61.029 61.03zm-115.487 0c0 30.076 24.381 54.458 54.458 54.458 30.076 0 54.457-24.382 54.457-54.458 0-30.076-24.381-54.458-54.457-54.458-30.077 0-54.458 24.382-54.458 54.458z" fill="url(#paint0_linear)"/><path d="M183.766 117.06l37.71 5.058-.95 7.095-37.71-5.092.95-7.061z" fill="url(#paint1_linear)"/><path d="M151.554 18.293l-12.236 25.68 6.434 3.066 12.236-25.68-6.434-3.066z" fill="url(#paint2_linear)"/><path d="M65.477 54.562l-3.394-4.616 5.77-4.21 3.36 4.617-5.736 4.21z" fill="url(#paint3_linear)"/><path d="M56.109 63.66L39.104 47.535l4.921-5.194 17.006 16.125-4.922 5.194z" fill="url(#paint4_linear)"/><path d="M38.817 117.592l-14.254 1.989.985 7.061 14.254-1.989-.985-7.061z" fill="url(#paint5_linear)"/><path d="M52.394 153.821L27.53 173.819l4.467 5.555 24.864-19.998-4.467-5.555z" fill="url(#paint6_linear)"/><path d="M71.148 171.749l-7.311 12.358 6.134 3.63 7.31-12.358-6.133-3.63z" fill="url(#paint7_linear)"/><path d="M160.753 172.122l-4.039-3.972 5.091-5.024 4.006 3.972-5.058 5.024z" fill="url(#paint8_linear)"/><path d="M202.936 86.15l-21.721 5.054 1.616 6.944 21.72-5.054-1.615-6.944z" fill="url(#paint9_linear)"/><path d="M179.388 85.556l-2.852-6.552 13.985-6.042 2.817 6.552-13.95 6.042z" fill="url(#paint10_linear)"/><path d="M166.048 63.253l-4.921-5.126 5.532-5.364 4.922 5.16-5.533 5.33z" fill="url(#paint11_linear)"/><path d="M185.344 2.161l-34.501 47.9 5.784 4.167 34.5-47.9-5.783-4.167z" fill="url(#paint12_linear)"/><path d="M121.075 39.083l-7.128-.68 2.444-28.346 7.094.611-2.41 28.415z" fill="url(#paint13_linear)"/><path d="M48.54 74.252l-26.204-17.28 3.903-5.974 26.204 17.313-3.903 5.941z" fill="url(#paint14_linear)"/><path d="M127.286 217.102l-6.279-33.913 6.992-1.324 6.313 33.913-7.026 1.324z" fill="url(#paint15_linear)"/><path d="M192.014 158.204l-18.329-9.777 3.361-6.28 18.328 9.743-3.36 6.314z" fill="url(#paint16_linear)"/><path d="M137.511.928l-10.622 39.115 6.878 1.868 10.622-39.114-6.878-1.869z" fill="url(#paint17_linear)"/><path d="M76.306 31.023l-6.408 3.12L76.3 47.3l6.409-3.12-6.404-13.156z" fill="url(#paint18_linear)"/><path d="M41.147 130.427l-7.77 2.561 2.231 6.771 7.77-2.561-2.231-6.771z" fill="url(#paint19_linear)"/><path d="M95.054 181.995l-4.478 25.272 7.019 1.244 4.477-25.272-7.018-1.244z" fill="url(#paint20_linear)"/><path d="M145.683 175.178l28.342 46.406 6.109-3.701-28.342-46.406-6.109 3.701z" fill="url(#paint21_linear)"/><path d="M188.179 139.499l-8.825-2.818 2.172-6.789 8.825 2.817-2.172 6.79z" fill="url(#paint22_linear)"/><path d="M173.719 73.81l-3.937-5.94 36.793-24.544 3.972 5.94-36.828 24.545z" fill="url(#paint23_linear)"/><path d="M.85 89.97l38.763 8.69 1.561-6.96-38.728-8.69L.85 89.97z" fill="url(#paint24_linear)"/><path d="M100.947 39.083L97.96 7.376l7.094-.68 2.987 31.708-7.094.679z" fill="url(#paint25_linear)"/><path d="M88.252 42.07l-5.906-20.98 6.89-1.935L95.11 40.17l-6.857 1.9z" fill="url(#paint26_linear)"/><path d="M42.973 86.066l-16.428-6.96 2.783-6.551 16.428 6.925-2.783 6.586z" fill="url(#paint27_linear)"/><path d="M14.597 103.583l24.235.95-.305 7.129-24.235-.951.305-7.128z" fill="url(#paint28_linear)"/><path d="M45.72 142.605l-26.008 14.132 3.403 6.265 26.008-14.133-3.403-6.264z" fill="url(#paint29_linear)"/><path d="M60.982 163.631l-20.356 23.505 5.388 4.668 20.356-23.506-5.388-4.667z" fill="url(#paint30_linear)"/><path d="M79.63 206.647l-6.686-2.478 9.708-26.208 6.686 2.478-9.707 26.208z" fill="url(#paint31_linear)"/><path d="M115.169 201.555l-7.128.033-.068-17.822 7.128-.034.068 17.823z" fill="url(#paint32_linear)"/><path d="M140.4 177.749l-6.663 2.533 7.405 19.485 6.663-2.533-7.405-19.485z" fill="url(#paint33_linear)"/><path d="M184.038 173.242l-18.024-14.257 4.413-5.602 18.057 14.258-4.446 5.601z" fill="url(#paint34_linear)"/><path d="M184.004 111.119l-.374-7.129 17.65-.849.34 7.129-17.616.849z" fill="url(#paint35_linear)"/><path d="M109.199 129.759v8.894H76.241v-8.894H87.36v-29.186a67.241 67.241 0 01.159-4.527l-6.591 5.48c-.583.45-1.165.728-1.747.834a5.348 5.348 0 01-1.589 0 4.35 4.35 0 01-1.35-.516c-.397-.265-.688-.53-.873-.794l-3.892-5.162 18.028-15.13h10.165v49.001h9.53zm40.866-20.053c0 5.056-.543 9.437-1.628 13.143-1.085 3.707-2.594 6.777-4.527 9.213-1.906 2.435-4.182 4.249-6.83 5.44-2.62 1.191-5.466 1.787-8.537 1.787-3.071 0-5.916-.596-8.537-1.787-2.594-1.191-4.845-3.005-6.751-5.44-1.906-2.436-3.401-5.506-4.487-9.213-1.058-3.706-1.588-8.087-1.588-13.143 0-5.056.53-9.437 1.588-13.143 1.086-3.707 2.581-6.777 4.487-9.213 1.906-2.435 4.157-4.235 6.751-5.4 2.621-1.191 5.466-1.787 8.537-1.787 3.071 0 5.917.596 8.537 1.787 2.648 1.165 4.924 2.965 6.83 5.4 1.933 2.436 3.442 5.507 4.527 9.213 1.085 3.706 1.628 8.087 1.628 13.143zm-12.707 0c0-3.997-.251-7.267-.754-9.808-.503-2.568-1.178-4.58-2.025-6.036-.821-1.456-1.761-2.448-2.819-2.978-1.059-.556-2.131-.834-3.217-.834-1.085 0-2.157.278-3.216.834-1.033.53-1.959 1.522-2.78 2.978-.794 1.456-1.443 3.468-1.945 6.036-.477 2.541-.715 5.811-.715 9.808 0 4.024.238 7.306.715 9.848.502 2.541 1.151 4.553 1.945 6.035.821 1.456 1.747 2.462 2.78 3.018 1.059.53 2.131.794 3.216.794 1.086 0 2.158-.264 3.217-.794 1.058-.556 1.998-1.562 2.819-3.018.847-1.482 1.522-3.494 2.025-6.035.503-2.542.754-5.824.754-9.848z" fill="url(#paint36_linear)"/><path d="M268.57 168.61h-4.868l-1.253 6.409h4.847l1.274-6.409zm8.031-2.958l-.308 1.705c-.068.425-.239.74-.513.945-.274.206-.699.308-1.274.308h-2.629l-1.274 6.409h3.492c.425 0 .726.13.904.39.192.247.24.671.144 1.274l-.185 1.294h-4.786l-1.684 8.607h-1.808c-.192 0-.376-.041-.555-.124a1.32 1.32 0 01-.41-.369 1.861 1.861 0 01-.247-.555 1.634 1.634 0 01.021-.678l1.376-6.881h-4.848l-1.376 7.087c-.109.547-.335.938-.678 1.17a2.03 2.03 0 01-1.171.35h-1.766l1.684-8.607h-2.834c-.411 0-.713-.123-.904-.37-.192-.246-.24-.678-.144-1.294l.185-1.294h4.129l1.253-6.409h-4.663l.287-1.684c.069-.438.24-.76.514-.966.274-.205.698-.308 1.273-.308h3.02l1.417-7.148c.082-.438.288-.78.616-1.027.329-.26.713-.39 1.151-.39h1.807l-1.684 8.565h4.868l1.664-8.565h1.787c.438 0 .781.137 1.027.411.247.273.329.63.247 1.068l-1.418 7.086h4.293zm45.748 5.957c0 2.164-.376 4.177-1.129 6.039a14.562 14.562 0 01-3.143 4.869c-1.356 1.369-2.992 2.444-4.909 3.224-1.904.781-4.02 1.171-6.348 1.171-2.328 0-4.45-.39-6.367-1.171-1.918-.78-3.561-1.855-4.93-3.224-1.356-1.384-2.41-3.006-3.163-4.869-.74-1.862-1.11-3.875-1.11-6.039 0-2.163.37-4.176 1.11-6.039.753-1.862 1.807-3.478 3.163-4.847 1.369-1.37 3.012-2.445 4.93-3.225 1.917-.781 4.039-1.171 6.367-1.171 2.328 0 4.444.397 6.348 1.191 1.917.781 3.553 1.856 4.909 3.225 1.355 1.369 2.403 2.985 3.143 4.848.753 1.862 1.129 3.868 1.129 6.018zm-7.107 0c0-1.479-.192-2.807-.575-3.985-.383-1.191-.938-2.198-1.664-3.019a7.03 7.03 0 00-2.629-1.89c-1.041-.438-2.225-.657-3.554-.657-1.342 0-2.54.219-3.594.657a7.22 7.22 0 00-2.65 1.89c-.712.821-1.26 1.828-1.643 3.019-.384 1.178-.576 2.506-.576 3.985 0 1.493.192 2.835.576 4.026.383 1.178.931 2.178 1.643 2.999a7.22 7.22 0 002.65 1.89c1.054.425 2.252.637 3.594.637 1.329 0 2.513-.212 3.554-.637a7.03 7.03 0 002.629-1.89c.726-.821 1.281-1.821 1.664-2.999.383-1.191.575-2.533.575-4.026zm30.666-2.834h1.109c1.027 0 1.767-.322 2.218-.966l6.738-9.777c.397-.521.822-.877 1.273-1.068.466-.206 1.041-.309 1.726-.309h6.039l-8.874 12.099c-.63.835-1.308 1.438-2.033 1.808.52.191.993.458 1.417.801.425.342.822.787 1.191 1.335l9.038 13.886h-6.203c-.397 0-.739-.028-1.027-.083a2.564 2.564 0 01-.719-.246 2.283 2.283 0 01-.534-.39 4.628 4.628 0 01-.431-.555l-6.779-10.414c-.246-.384-.561-.651-.945-.801-.369-.165-.876-.247-1.52-.247h-1.684v12.736h-6.943v-29.929h6.943v12.12zm41.577-6.779v7.58h10.229v5.361h-10.229v11.647h-6.984v-29.929h19.268v5.341h-12.284zm55.292 9.839c0 2.205-.356 4.211-1.068 6.019-.698 1.807-1.691 3.362-2.978 4.663-1.287 1.287-2.828 2.286-4.622 2.998-1.794.713-3.786 1.069-5.977 1.069H417.04v-29.497h11.092c2.191 0 4.183.356 5.977 1.068 1.794.712 3.335 1.719 4.622 3.019 1.287 1.288 2.28 2.842 2.978 4.663.712 1.808 1.068 3.807 1.068 5.998zm-4.478 0c0-1.753-.239-3.321-.718-4.704-.48-1.396-1.164-2.574-2.055-3.533a8.536 8.536 0 00-3.204-2.218c-1.246-.507-2.643-.76-4.19-.76h-6.697v22.431h6.697c1.547 0 2.944-.254 4.19-.76a8.651 8.651 0 003.204-2.198c.891-.973 1.575-2.15 2.055-3.533.479-1.383.718-2.958.718-4.725zm40.825 11.195l-.02 3.554h-18.282v-29.497h18.282v3.553h-13.886v9.347h11.174v3.43h-11.174v9.613h13.906zm35.891-1.048v4.602h-17.049v-4.602h5.752v-15.097a33.842 33.842 0 01.082-2.342l-3.41 2.835c-.301.233-.602.376-.903.431a2.76 2.76 0 01-.822 0 2.268 2.268 0 01-.699-.267 1.672 1.672 0 01-.451-.411l-2.013-2.67 9.325-7.826h5.259v25.347h4.929zm37.779-10.373c0 2.616-.281 4.882-.843 6.799-.561 1.917-1.342 3.506-2.341 4.766-.986 1.26-2.164 2.198-3.533 2.814-1.356.616-2.828.924-4.417.924-1.588 0-3.06-.308-4.416-.924-1.342-.616-2.506-1.554-3.492-2.814-.986-1.26-1.76-2.849-2.321-4.766-.548-1.917-.822-4.183-.822-6.799 0-2.615.274-4.882.822-6.799.561-1.917 1.335-3.505 2.321-4.765.986-1.26 2.15-2.191 3.492-2.794 1.356-.616 2.828-.924 4.416-.924 1.589 0 3.061.308 4.417.924 1.369.603 2.547 1.534 3.533 2.794.999 1.26 1.78 2.848 2.341 4.765.562 1.917.843 4.184.843 6.799zm-6.574 0c0-2.068-.13-3.759-.39-5.073-.26-1.329-.609-2.369-1.047-3.123-.425-.753-.911-1.266-1.459-1.54a3.54 3.54 0 00-1.664-.432c-.561 0-1.116.144-1.663.432-.535.274-1.014.787-1.438 1.54-.411.754-.747 1.794-1.007 3.123-.246 1.314-.37 3.005-.37 5.073 0 2.082.124 3.78.37 5.094.26 1.315.596 2.356 1.007 3.123.424.753.903 1.273 1.438 1.561a3.68 3.68 0 001.663.411c.562 0 1.116-.137 1.664-.411.548-.288 1.034-.808 1.459-1.561.438-.767.787-1.808 1.047-3.123.26-1.314.39-3.012.39-5.094z" fill="#F290EE"/><defs id="defs345"><linearGradient id="paint0_linear" x1="221.476" y1=".928" x2=".826" y2="221.559" gradientUnits="userSpaceOnUse"><stop offset=".109" stop-color="#ED496E" id="stop86"/><stop offset=".438" stop-color="#F290EE" id="stop88"/><stop offset=".833" stop-color="#5DDBF7" id="stop90"/></linearGradient><linearGradient id="paint1_linear" x1="221.476" y1=".928" x2=".826" y2="221.559" gradientUnits="userSpaceOnUse"><stop offset=".109" stop-color="#ED496E" id="stop93"/><stop offset=".438" stop-color="#F290EE" id="stop95"/><stop offset=".833" stop-color="#5DDBF7" id="stop97"/></linearGradient><linearGradient id="paint2_linear" x1="221.476" y1=".928" x2=".826" y2="221.559" gradientUnits="userSpaceOnUse"><stop offset=".109" stop-color="#ED496E" id="stop100"/><stop offset=".438" stop-color="#F290EE" id="stop102"/><stop offset=".833" stop-color="#5DDBF7" id="stop104"/></linearGradient><linearGradient id="paint3_linear" x1="221.476" y1=".928" x2=".826" y2="221.559" gradientUnits="userSpaceOnUse"><stop offset=".109" stop-color="#ED496E" id="stop107"/><stop offset=".438" stop-color="#F290EE" id="stop109"/><stop offset=".833" stop-color="#5DDBF7" id="stop111"/></linearGradient><linearGradient id="paint4_linear" x1="221.476" y1=".928" x2=".826" y2="221.559" gradientUnits="userSpaceOnUse"><stop offset=".109" stop-color="#ED496E" id="stop114"/><stop offset=".438" stop-color="#F290EE" id="stop116"/><stop offset=".833" stop-color="#5DDBF7" id="stop118"/></linearGradient><linearGradient id="paint5_linear" x1="221.476" y1=".928" x2=".826" y2="221.559" gradientUnits="userSpaceOnUse"><stop offset=".109" stop-color="#ED496E" id="stop121"/><stop offset=".438" stop-color="#F290EE" id="stop123"/><stop offset=".833" stop-color="#5DDBF7" id="stop125"/></linearGradient><linearGradient id="paint6_linear" x1="221.476" y1=".928" x2=".826" y2="221.559" gradientUnits="userSpaceOnUse"><stop offset=".109" stop-color="#ED496E" id="stop128"/><stop offset=".438" stop-color="#F290EE" id="stop130"/><stop offset=".833" stop-color="#5DDBF7" id="stop132"/></linearGradient><linearGradient id="paint7_linear" x1="221.476" y1=".928" x2=".826" y2="221.559" gradientUnits="userSpaceOnUse"><stop offset=".109" stop-color="#ED496E" id="stop135"/><stop offset=".438" stop-color="#F290EE" id="stop137"/><stop offset=".833" stop-color="#5DDBF7" id="stop139"/></linearGradient><linearGradient id="paint8_linear" x1="221.476" y1=".928" x2=".826" y2="221.559" gradientUnits="userSpaceOnUse"><stop offset=".109" stop-color="#ED496E" id="stop142"/><stop offset=".438" stop-color="#F290EE" id="stop144"/><stop offset=".833" stop-color="#5DDBF7" id="stop146"/></linearGradient><linearGradient id="paint9_linear" x1="221.476" y1=".928" x2=".826" y2="221.559" gradientUnits="userSpaceOnUse"><stop offset=".109" stop-color="#ED496E" id="stop149"/><stop offset=".438" stop-color="#F290EE" id="stop151"/><stop offset=".833" stop-color="#5DDBF7" id="stop153"/></linearGradient><linearGradient id="paint10_linear" x1="221.476" y1=".928" x2=".826" y2="221.559" gradientUnits="userSpaceOnUse"><stop offset=".109" stop-color="#ED496E" id="stop156"/><stop offset=".438" stop-color="#F290EE" id="stop158"/><stop offset=".833" stop-color="#5DDBF7" id="stop160"/></linearGradient><linearGradient id="paint11_linear" x1="221.476" y1=".928" x2=".826" y2="221.559" gradientUnits="userSpaceOnUse"><stop offset=".109" stop-color="#ED496E" id="stop163"/><stop offset=".438" stop-color="#F290EE" id="stop165"/><stop offset=".833" stop-color="#5DDBF7" id="stop167"/></linearGradient><linearGradient id="paint12_linear" x1="221.476" y1=".928" x2=".826" y2="221.559" gradientUnits="userSpaceOnUse"><stop offset=".109" stop-color="#ED496E" id="stop170"/><stop offset=".438" stop-color="#F290EE" id="stop172"/><stop offset=".833" stop-color="#5DDBF7" id="stop174"/></linearGradient><linearGradient id="paint13_linear" x1="221.476" y1=".928" x2=".826" y2="221.559" gradientUnits="userSpaceOnUse"><stop offset=".109" stop-color="#ED496E" id="stop177"/><stop offset=".438" stop-color="#F290EE" id="stop179"/><stop offset=".833" stop-color="#5DDBF7" id="stop181"/></linearGradient><linearGradient id="paint14_linear" x1="221.476" y1=".928" x2=".826" y2="221.559" gradientUnits="userSpaceOnUse"><stop offset=".109" stop-color="#ED496E" id="stop184"/><stop offset=".438" stop-color="#F290EE" id="stop186"/><stop offset=".833" stop-color="#5DDBF7" id="stop188"/></linearGradient><linearGradient id="paint15_linear" x1="221.476" y1=".928" x2=".826" y2="221.559" gradientUnits="userSpaceOnUse"><stop offset=".109" stop-color="#ED496E" id="stop191"/><stop offset=".438" stop-color="#F290EE" id="stop193"/><stop offset=".833" stop-color="#5DDBF7" id="stop195"/></linearGradient><linearGradient id="paint16_linear" x1="221.476" y1=".928" x2=".826" y2="221.559" gradientUnits="userSpaceOnUse"><stop offset=".109" stop-color="#ED496E" id="stop198"/><stop offset=".438" stop-color="#F290EE" id="stop200"/><stop offset=".833" stop-color="#5DDBF7" id="stop202"/></linearGradient><linearGradient id="paint17_linear" x1="221.476" y1=".928" x2=".826" y2="221.559" gradientUnits="userSpaceOnUse"><stop offset=".109" stop-color="#ED496E" id="stop205"/><stop offset=".438" stop-color="#F290EE" id="stop207"/><stop offset=".833" stop-color="#5DDBF7" id="stop209"/></linearGradient><linearGradient id="paint18_linear" x1="221.476" y1=".928" x2=".826" y2="221.559" gradientUnits="userSpaceOnUse"><stop offset=".109" stop-color="#ED496E" id="stop212"/><stop offset=".438" stop-color="#F290EE" id="stop214"/><stop offset=".833" stop-color="#5DDBF7" id="stop216"/></linearGradient><linearGradient id="paint19_linear" x1="221.476" y1=".928" x2=".826" y2="221.559" gradientUnits="userSpaceOnUse"><stop offset=".109" stop-color="#ED496E" id="stop219"/><stop offset=".438" stop-color="#F290EE" id="stop221"/><stop offset=".833" stop-color="#5DDBF7" id="stop223"/></linearGradient><linearGradient id="paint20_linear" x1="221.476" y1=".928" x2=".826" y2="221.559" gradientUnits="userSpaceOnUse"><stop offset=".109" stop-color="#ED496E" id="stop226"/><stop offset=".438" stop-color="#F290EE" id="stop228"/><stop offset=".833" stop-color="#5DDBF7" id="stop230"/></linearGradient><linearGradient id="paint21_linear" x1="221.476" y1=".928" x2=".826" y2="221.559" gradientUnits="userSpaceOnUse"><stop offset=".109" stop-color="#ED496E" id="stop233"/><stop offset=".438" stop-color="#F290EE" id="stop235"/><stop offset=".833" stop-color="#5DDBF7" id="stop237"/></linearGradient><linearGradient id="paint22_linear" x1="221.476" y1=".928" x2=".826" y2="221.559" gradientUnits="userSpaceOnUse"><stop offset=".109" stop-color="#ED496E" id="stop240"/><stop offset=".438" stop-color="#F290EE" id="stop242"/><stop offset=".833" stop-color="#5DDBF7" id="stop244"/></linearGradient><linearGradient id="paint23_linear" x1="221.476" y1=".928" x2=".826" y2="221.559" gradientUnits="userSpaceOnUse"><stop offset=".109" stop-color="#ED496E" id="stop247"/><stop offset=".438" stop-color="#F290EE" id="stop249"/><stop offset=".833" stop-color="#5DDBF7" id="stop251"/></linearGradient><linearGradient id="paint24_linear" x1="221.476" y1=".928" x2=".826" y2="221.559" gradientUnits="userSpaceOnUse"><stop offset=".109" stop-color="#ED496E" id="stop254"/><stop offset=".438" stop-color="#F290EE" id="stop256"/><stop offset=".833" stop-color="#5DDBF7" id="stop258"/></linearGradient><linearGradient id="paint25_linear" x1="221.476" y1=".928" x2=".826" y2="221.559" gradientUnits="userSpaceOnUse"><stop offset=".109" stop-color="#ED496E" id="stop261"/><stop offset=".438" stop-color="#F290EE" id="stop263"/><stop offset=".833" stop-color="#5DDBF7" id="stop265"/></linearGradient><linearGradient id="paint26_linear" x1="221.476" y1=".928" x2=".826" y2="221.559" gradientUnits="userSpaceOnUse"><stop offset=".109" stop-color="#ED496E" id="stop268"/><stop offset=".438" stop-color="#F290EE" id="stop270"/><stop offset=".833" stop-color="#5DDBF7" id="stop272"/></linearGradient><linearGradient id="paint27_linear" x1="221.476" y1=".928" x2=".826" y2="221.559" gradientUnits="userSpaceOnUse"><stop offset=".109" stop-color="#ED496E" id="stop275"/><stop offset=".438" stop-color="#F290EE" id="stop277"/><stop offset=".833" stop-color="#5DDBF7" id="stop279"/></linearGradient><linearGradient id="paint28_linear" x1="221.476" y1=".928" x2=".826" y2="221.559" gradientUnits="userSpaceOnUse"><stop offset=".109" stop-color="#ED496E" id="stop282"/><stop offset=".438" stop-color="#F290EE" id="stop284"/><stop offset=".833" stop-color="#5DDBF7" id="stop286"/></linearGradient><linearGradient id="paint29_linear" x1="221.476" y1=".928" x2=".826" y2="221.559" gradientUnits="userSpaceOnUse"><stop offset=".109" stop-color="#ED496E" id="stop289"/><stop offset=".438" stop-color="#F290EE" id="stop291"/><stop offset=".833" stop-color="#5DDBF7" id="stop293"/></linearGradient><linearGradient id="paint30_linear" x1="221.476" y1=".928" x2=".826" y2="221.559" gradientUnits="userSpaceOnUse"><stop offset=".109" stop-color="#ED496E" id="stop296"/><stop offset=".438" stop-color="#F290EE" id="stop298"/><stop offset=".833" stop-color="#5DDBF7" id="stop300"/></linearGradient><linearGradient id="paint31_linear" x1="221.476" y1=".928" x2=".826" y2="221.559" gradientUnits="userSpaceOnUse"><stop offset=".109" stop-color="#ED496E" id="stop303"/><stop offset=".438" stop-color="#F290EE" id="stop305"/><stop offset=".833" stop-color="#5DDBF7" id="stop307"/></linearGradient><linearGradient id="paint32_linear" x1="221.476" y1=".928" x2=".826" y2="221.559" gradientUnits="userSpaceOnUse"><stop offset=".109" stop-color="#ED496E" id="stop310"/><stop offset=".438" stop-color="#F290EE" id="stop312"/><stop offset=".833" stop-color="#5DDBF7" id="stop314"/></linearGradient><linearGradient id="paint33_linear" x1="221.476" y1=".928" x2=".826" y2="221.559" gradientUnits="userSpaceOnUse"><stop offset=".109" stop-color="#ED496E" id="stop317"/><stop offset=".438" stop-color="#F290EE" id="stop319"/><stop offset=".833" stop-color="#5DDBF7" id="stop321"/></linearGradient><linearGradient id="paint34_linear" x1="221.476" y1=".928" x2=".826" y2="221.559" gradientUnits="userSpaceOnUse"><stop offset=".109" stop-color="#ED496E" id="stop324"/><stop offset=".438" stop-color="#F290EE" id="stop326"/><stop offset=".833" stop-color="#5DDBF7" id="stop328"/></linearGradient><linearGradient id="paint35_linear" x1="221.476" y1=".928" x2=".826" y2="221.559" gradientUnits="userSpaceOnUse"><stop offset=".109" stop-color="#ED496E" id="stop331"/><stop offset=".438" stop-color="#F290EE" id="stop333"/><stop offset=".833" stop-color="#5DDBF7" id="stop335"/></linearGradient><linearGradient id="paint36_linear" x1="155.889" y1="61.653" x2="63.238" y2="154.308" gradientUnits="userSpaceOnUse"><stop offset=".109" stop-color="#ED496E" id="stop338"/><stop offset=".438" stop-color="#F290EE" id="stop340"/><stop offset=".833" stop-color="#5DDBF7" id="stop342"/></linearGradient></defs></svg>