<svg width="14px" height="14px" viewBox="0 0 14 14" version="1.1" xmlns="http://www.w3.org/2000/svg" xmlns:xlink="http://www.w3.org/1999/xlink">
    <title>Pfeil extern</title>
    <g stroke="none" stroke-width="1" fill="none" fill-rule="evenodd">
        <g transform="translate(-320.000000, -3118.000000)" fill="#1E00FF">
            <path d="M330.399145,3119.23671 C330.072449,3118.9211 329.542356,3118.9211 329.21476,3119.23671 C328.888064,3119.55407 328.888064,3120.06673 329.21476,3120.3841 L333.143211,3124.18894 L318.83699,3124.18894 C318.374395,3124.18894 318,3124.55164 318,3124.99978 C318,3125.44705 318.374395,3125.81062 318.83699,3125.81062 L333.143211,3125.81062 L329.21476,3129.61547 C328.888064,3129.93196 328.888064,3130.44549 329.21476,3130.76198 C329.378558,3130.92066 329.592755,3131 329.806952,3131 C330.02115,3131 330.235347,3130.92066 330.399145,3130.76198 L335.754978,3125.5726 C336.081674,3125.25611 336.081674,3124.74258 335.754978,3124.42609 L330.399145,3119.23671 Z" id="Fill-46" transform="translate(327.000000, 3125.000000) rotate(-45.000000) translate(-327.000000, -3125.000000) "></path>
        </g>
    </g>
</svg>
