<svg width="100px" height="100px" viewBox="0 0 100 100" version="1.1" xmlns="http://www.w3.org/2000/svg" xmlns:xlink="http://www.w3.org/1999/xlink">
    <g stroke="none" stroke-width="1" fill="none" fill-rule="evenodd">
        <g transform="translate(-765.000000, -91.000000)" fill="#00FFE0">
            <g transform="translate(765.000000, 39.000000)">
                <polygon points="53.935 52 50 57.219 46.065 52 42.995 57.771 38.291 53.231 36.162 59.411 30.807 55.663 29.67 62.1 23.794 59.236 23.678 65.772 17.427 63.862 18.335 70.335 11.862 69.428 13.772 75.678 7.236 75.794 10.1 81.67 3.663 82.807 7.41 88.162 1.231 90.291 5.771 94.995 0 98.065 5.219 102 0 105.935 5.771 109.005 1.231 113.708 7.41 115.838 3.663 121.194 10.1 122.331 7.236 128.206 13.772 128.321 11.862 134.573 18.335 133.664 17.427 140.138 23.678 138.228 23.794 144.764 29.67 141.9 30.807 148.337 36.162 144.589 38.291 150.769 42.995 146.229 46.065 152 50 146.781 53.935 152 57.005 146.229 61.708 150.769 63.838 144.589 69.194 148.337 70.33 141.9 76.206 144.764 76.322 138.228 82.573 140.138 81.665 133.664 88.138 134.573 86.228 128.321 92.764 128.206 89.9 122.331 96.337 121.194 92.589 115.838 98.769 113.708 94.229 109.005 100 105.935 94.781 102 100 98.065 94.229 94.995 98.769 90.291 92.589 88.162 96.337 82.807 89.9 81.67 92.764 75.794 86.228 75.678 88.138 69.428 81.665 70.335 82.573 63.862 76.322 65.772 76.206 59.236 70.33 62.1 69.194 55.663 63.838 59.411 61.708 53.231 57.005 57.771"></polygon>
            </g>
        </g>
    </g>
</svg>
