<?xml version="1.0" encoding="utf-8"?>
<!-- Generator: Adobe Illustrator 22.1.0, SVG Export Plug-In . SVG Version: 6.00 Build 0)  -->
<svg version="1.1" id="Layer_1" xmlns="http://www.w3.org/2000/svg" xmlns:xlink="http://www.w3.org/1999/xlink" x="0px" y="0px"
	 viewBox="0 0 20 20" style="enable-background:new 0 0 20 20;" xml:space="preserve">
<style type="text/css">
	.st0{enable-background:new    ;}
</style>
<title></title>
<desc>Created with Sketch.</desc>
<g id="Page-1">
	<g id="Themen" transform="translate(-885.000000, -3032.000000)">
		<g id="Group-5" transform="translate(33.000000, 2697.000000)">
			<g class="st0">
				<path d="M861.6,335.8c1.8,0,3.4,0.4,4.9,1.2s2.7,2,3.6,3.4c0.9,1.5,1.3,3.1,1.3,4.9c0,2.2-0.6,4.1-1.8,5.8s-2.8,2.9-4.7,3.5
					c-0.2,0.1-0.4,0-0.5-0.1s-0.2-0.2-0.2-0.4v-3.3c0-0.8-0.2-1.4-0.7-1.8c1-0.1,1.7-0.2,2.1-0.4c0.7-0.3,1.3-0.7,1.7-1.2
					c0.4-0.7,0.7-1.6,0.7-2.8c0-0.5-0.1-0.9-0.3-1.3c-0.1-0.3-0.4-0.6-0.7-1c0.1-0.3,0.2-0.6,0.2-0.9c0-0.6-0.1-1.1-0.3-1.7
					c-0.3-0.1-0.6,0-1.1,0.2c-0.3,0.1-0.7,0.3-1.1,0.5l-0.5,0.4c-0.8-0.2-1.6-0.4-2.5-0.4s-1.7,0.1-2.4,0.4l-0.5-0.4
					c-0.4-0.2-0.8-0.4-1.1-0.5c-0.5-0.2-0.8-0.2-1.1-0.2c-0.2,0.6-0.3,1.1-0.3,1.7c0,0.4,0.1,0.7,0.2,0.9c-0.3,0.4-0.5,0.7-0.7,1.1
					s-0.2,0.7-0.2,1.2c0,1.2,0.2,2.1,0.6,2.7c0.4,0.5,0.9,1,1.6,1.2c0.5,0.2,1.2,0.3,2.1,0.4c-0.3,0.3-0.5,0.8-0.6,1.3
					c-0.4,0.2-0.9,0.3-1.3,0.2c-0.7-0.1-1.2-0.4-1.6-1.1c-0.2-0.3-0.4-0.5-0.6-0.7c-0.2-0.1-0.4-0.2-0.6-0.3l-0.3,0
					c-0.3,0-0.4,0-0.4,0.1s0,0.2,0.2,0.3l0.2,0.2c0.2,0.1,0.4,0.3,0.5,0.5c0.2,0.2,0.3,0.4,0.4,0.6l0.2,0.3c0.1,0.4,0.4,0.7,0.7,0.9
					c0.3,0.2,0.7,0.3,1.1,0.4c0.3,0,0.6,0,1,0l0.4,0l0,2.4c0,0.2-0.1,0.3-0.2,0.4s-0.3,0.1-0.5,0.1c-2-0.7-3.6-1.8-4.8-3.5
					s-1.8-3.6-1.8-5.8c0-1.8,0.4-3.4,1.2-4.8s2-2.6,3.4-3.4S859.8,335.8,861.6,335.8z M855.4,349c0.1-0.1,0.1-0.1,0.2,0
					s0.1,0.1,0.1,0.2s-0.1,0.1-0.2,0S855.3,349,855.4,349z M855.8,349.3c0.1-0.1,0.1,0,0.2,0s0.1,0.1,0,0.2s-0.1,0-0.2,0
					S855.7,349.3,855.8,349.3z M856.2,349.8c0.1,0,0.1,0,0.1,0s0.1,0,0.1,0.1c0.1,0.1,0.1,0.2,0,0.2c0,0-0.1,0-0.1,0
					s-0.1-0.1-0.1-0.1C856.1,349.9,856.1,349.8,856.2,349.8z M856.6,350.3c0,0,0.1,0,0.1,0s0.1,0,0.1,0.1s0.1,0.1,0.1,0.1
					s0,0.1,0,0.1c-0.1,0.1-0.2,0.1-0.3,0c-0.1-0.1-0.1-0.1-0.1-0.2S856.6,350.4,856.6,350.3z M857.3,350.9c0-0.1,0.1-0.1,0.2-0.1
					s0.2,0.1,0.2,0.2s0,0.1-0.1,0.1s-0.1,0-0.2,0S857.3,351,857.3,350.9C857.3,350.9,857.2,350.9,857.3,350.9z M858.5,351
					C858.5,351,858.5,351,858.5,351c-0.1-0.1-0.2-0.1-0.2-0.1c-0.1,0-0.2,0.1-0.2,0.2s0.1,0.1,0.2,0.1S858.5,351.1,858.5,351z
					 M859,350.8c0.1,0,0.2,0,0.2,0.1s0,0.1-0.2,0.2c-0.1,0-0.1,0-0.1,0s-0.1-0.1-0.1-0.1S858.9,350.8,859,350.8z"/>
			</g>
		</g>
	</g>
</g>
</svg>
