<?xml version="1.0" encoding="utf-8"?>
<!-- Generator: Adobe Illustrator 22.1.0, SVG Export Plug-In . SVG Version: 6.00 Build 0)  -->
<svg version="1.1" id="Layer_1" xmlns="http://www.w3.org/2000/svg" xmlns:xlink="http://www.w3.org/1999/xlink" x="0px" y="0px"
	 viewBox="0 0 21 21" style="enable-background:new 0 0 21 21;" xml:space="preserve">
<style type="text/css">
	.st0{enable-background:new    ;}
</style>
<title></title>
<desc>Created with Sketch.</desc>
<g id="Page-1">
	<g id="Themen" transform="translate(-885.000000, -3032.000000)">
		<g id="Group-5" transform="translate(33.000000, 2697.000000)">
			<g class="st0">
				<path d="M853.3,344.3c0.2,0.2,0.3,0.4,0.4,0.6s0,0.4-0.1,0.6s-0.3,0.3-0.5,0.4s-0.4,0-0.6-0.1s-0.3-0.3-0.4-0.6s0-0.4,0.1-0.6
					s0.3-0.3,0.5-0.4S853.1,344.2,853.3,344.3z M869.2,346.4c0.4-0.3,0.7-0.8,0.7-1.3s0-1-0.3-1.5s-0.7-0.8-1.2-0.9
					c0.1-0.9-0.1-1.7-0.6-2.4s-1.2-1.2-2-1.5s-1.7-0.3-2.5,0c-0.7-0.5-1.5-0.8-2.4-0.8s-1.7,0.3-2.4,0.8s-1.3,1.2-1.6,2.1
					c-0.7,0.1-1.2,0.4-1.7,0.9s-0.7,1.1-0.8,1.7s0,1.3,0.4,1.9c-0.6,0.6-1,1.3-1,2.1s0.2,1.6,0.7,2.2s1.1,1,1.9,1.2
					c0,0.7,0.2,1.3,0.6,1.8c0.5,0.8,1.3,1.2,2.2,1.4s1.7,0,2.5-0.5l0.1-0.1c0.5,0.4,1,0.6,1.6,0.6s1.1-0.2,1.6-0.5s0.8-0.8,1-1.4
					c0.8,0,1.5-0.2,2.2-0.7c0.8-0.5,1.3-1.3,1.5-2.3S869.7,347.2,869.2,346.4z M855.9,351.7c0-0.1-0.1-0.2-0.2-0.3s-0.2-0.1-0.3-0.1
					s-0.2,0.1-0.3,0.2s-0.1,0.2-0.1,0.3s0.1,0.2,0.2,0.2s0.2,0.1,0.3,0.1s0.2-0.1,0.3-0.2S855.9,351.8,855.9,351.7z M856.5,339.9
					c-0.1,0.1-0.3,0.1-0.5,0.1s-0.3-0.1-0.4-0.3s-0.1-0.3-0.1-0.5s0.1-0.3,0.3-0.4s0.3-0.1,0.5-0.1s0.3,0.1,0.4,0.3s0.1,0.3,0.1,0.5
					S856.6,339.8,856.5,339.9z M866.5,349.3c0.1,0.3-0.1,0.5-0.4,0.6c-0.3,0.1-0.6,0.1-1.1,0c-0.4-0.1-0.6-0.1-0.8-0.2
					c-0.4-0.2-0.6-0.5-0.8-0.8s-0.2-0.8-0.2-1.2c0.1-0.2,0.3-0.8,0.9-1.9c0.4-0.9,0.7-1.4,0.7-1.6c0.1-0.3,0-0.4-0.3-0.4
					c-0.2,0-0.3,0.1-0.5,0.3l-1.4,2.9l-0.5,1c-0.2,0.3-0.4,0.5-0.6,0.5s-0.5,0.1-0.7-0.1s-0.3-0.3-0.2-0.6c0-0.1,0.2-0.5,0.5-1.3
					c0.4-1,0.6-1.6,0.6-1.8c0.1-0.3,0-0.5-0.2-0.6c-0.1-0.1-0.2-0.1-0.3,0s-0.2,0.1-0.2,0.2s-0.3,0.8-0.8,2.1
					c-0.6,1.5-0.9,2.2-0.9,2.3c-0.1,0.2-0.3,0.4-0.4,0.5s-0.3,0.2-0.5,0.2c-0.5,0-0.9-0.1-1.2-0.5s-0.4-0.8-0.2-1.3l0.1-0.4
					c0.7-2.5,1.2-4,1.5-4.5c0.2-0.3,0.4-0.6,0.8-0.7s0.7-0.2,1.1-0.1c0.2,0.1,0.5,0.2,0.9,0.4c0.2,0.1,0.4,0,0.7-0.3l0.1-0.1
					c0.2-0.2,0.4-0.3,0.5-0.3s0.3-0.1,0.5,0c0.2,0,0.4,0.2,0.7,0.4l0.1,0.1c0.1,0.1,0.3,0.1,0.4,0l0,0c0.2-0.1,0.5-0.2,0.8-0.2
					c0.8,0,1.2,0.4,1.3,1.1c0,0.2,0,0.6-0.2,1.1c-0.1,0.3-0.3,0.7-0.6,1.3s-0.5,1.1-0.6,1.4c-0.2,0.5-0.2,0.9-0.2,1.2
					c0,0.2,0.1,0.4,0.3,0.4c0.1,0.1,0.3,0.1,0.5,0.1s0.4,0.1,0.5,0.1C866.4,349,866.5,349.1,866.5,349.3z M858.1,336.4
					c-0.1,0.1-0.2,0-0.4,0s-0.2-0.2-0.2-0.3s0-0.2,0.1-0.4s0.2-0.2,0.3-0.2s0.2,0,0.3,0.1s0.2,0.2,0.2,0.3s0,0.2-0.1,0.4
					S858.2,336.4,858.1,336.4z M861.5,354.5c0.1-0.1,0.3-0.1,0.4-0.1s0.3,0.1,0.4,0.2s0.1,0.3,0.1,0.4s-0.1,0.3-0.2,0.4
					s-0.3,0.1-0.4,0.1s-0.3-0.1-0.4-0.2s-0.1-0.3-0.1-0.4S861.3,354.6,861.5,354.5z M864,337.6c-0.2,0.1-0.4,0.2-0.6,0.1
					s-0.4-0.2-0.5-0.4s-0.1-0.4-0.1-0.7s0.2-0.4,0.4-0.5c0.2-0.1,0.4-0.1,0.6-0.1s0.4,0.2,0.5,0.4s0.2,0.4,0.1,0.7
					S864.2,337.5,864,337.6z M866.7,352.9c0.2-0.2,0.4-0.2,0.7-0.2s0.4,0.2,0.6,0.4s0.2,0.4,0.2,0.7s-0.2,0.4-0.4,0.6
					s-0.4,0.2-0.7,0.1s-0.4-0.2-0.6-0.4s-0.2-0.4-0.1-0.7S866.5,353,866.7,352.9z M869.5,340.9c0.2-0.1,0.3-0.2,0.5-0.1
					s0.4,0.1,0.5,0.3s0.2,0.4,0.1,0.6s-0.1,0.4-0.3,0.5s-0.3,0.1-0.5,0.1s-0.4-0.1-0.5-0.3s-0.1-0.4-0.1-0.6S869.3,341,869.5,340.9z
					 M871.1,346c0.1,0,0.3,0,0.4,0.1s0.2,0.2,0.2,0.4s0,0.3-0.1,0.4s-0.2,0.2-0.3,0.2s-0.3,0-0.4-0.1s-0.2-0.2-0.2-0.3
					s0-0.3,0.1-0.4S870.9,346.1,871.1,346z M872.6,343.8c0,0.1,0,0.2,0,0.3s-0.1,0.1-0.3,0.2s-0.2,0-0.3-0.1s-0.2-0.1-0.2-0.3
					s0-0.2,0.1-0.3s0.2-0.2,0.3-0.2s0.2,0,0.3,0.1S872.6,343.7,872.6,343.8z"/>
			</g>
		</g>
	</g>
</g>
</svg>
