<svg width="21" height="20" viewBox="0 0 21 20" fill="none" xmlns="http://www.w3.org/2000/svg">
<path d="M5.64967 13.0333C6.13148 13.0333 6.59356 13.2247 6.93425 13.5654C7.27494 13.9061 7.46634 14.3681 7.46634 14.8499C7.46634 15.8333 6.64967 16.6666 5.64967 16.6666C4.66634 16.6666 3.83301 15.8333 3.83301 14.8499C3.83301 14.3681 4.02441 13.9061 4.3651 13.5654C4.70579 13.2247 5.16786 13.0333 5.64967 13.0333ZM3.83301 3.69995C7.27198 3.69995 10.5701 5.06608 13.0018 7.4978C15.4335 9.92952 16.7997 13.2276 16.7997 16.6666H14.4413C14.4413 13.8531 13.3237 11.1548 11.3342 9.16539C9.34478 7.17594 6.64651 6.05828 3.83301 6.05828V3.69995ZM3.83301 8.41662C6.02104 8.41662 8.11946 9.28581 9.66664 10.833C11.2138 12.3802 12.083 14.4786 12.083 16.6666H9.72467C9.72467 15.104 9.10395 13.6055 7.99904 12.5006C6.89414 11.3957 5.39557 10.775 3.83301 10.775V8.41662Z" fill="black"/>
</svg>
