<svg version="1.1" xmlns="http://www.w3.org/2000/svg" xmlns:xlink="http://www.w3.org/1999/xlink" x="0px" y="0px" viewBox="0 0 16 16" style="enable-background:new 0 0 16 16;" xml:space="preserve">
    <title>RSS</title>
    <g>
	<g transform="translate(-885.000000, -3105.000000)">
	    <g transform="translate(33.000000, 2697.000000)">
		<g
                    >
		    <path d="M867.5,423.8c-0.1,0.1-0.3,0.2-0.5,0.2h-1.6c-0.4,0-0.7-0.3-0.7-0.7c-0.4-6.5-5.5-11.6-12-12c-0.4,0-0.7-0.3-0.7-0.7
			     V409c0-0.2,0.1-0.4,0.2-0.5c0.1-0.1,0.3-0.2,0.5-0.2c0,0,0,0,0,0c3.9,0.2,7.6,1.8,10.3,4.6c2.8,2.8,4.4,6.4,4.6,10.3
			     C867.7,423.4,867.6,423.6,867.5,423.8z M861.8,423.8c-0.1,0.2-0.3,0.2-0.5,0.2h-1.5c-0.4,0-0.7-0.3-0.7-0.6
			     c-0.3-3.4-3-6.1-6.4-6.4c-0.4,0-0.6-0.3-0.6-0.7v-1.5c0-0.2,0.1-0.4,0.2-0.5c0.1-0.1,0.3-0.2,0.5-0.2c0,0,0,0,0.1,0
			     c2.4,0.2,4.6,1.2,6.3,2.9c1.7,1.7,2.7,3.9,2.9,6.3C862,423.4,861.9,423.6,861.8,423.8z M854.1,424c-1.2,0-2.1-1-2.1-2.1
			     s1-2.1,2.1-2.1s2.1,1,2.1,2.1S855.3,424,854.1,424z"/>
		</g>
	    </g>
	</g>
    </g>
</svg>
