<?xml version="1.0" encoding="UTF-8"?>
<svg width="14px" height="14px" viewBox="0 0 14 14" version="1.1" xmlns="http://www.w3.org/2000/svg" xmlns:xlink="http://www.w3.org/1999/xlink">
    <!-- Generator: Sketch 50.2 (55047) - http://www.bohemiancoding.com/sketch -->
    <title>Fill 1</title>
    <desc>Created with Sketch.</desc>
    <defs></defs>
    <g id="Page-1" stroke="none" stroke-width="1" fill="none" fill-rule="evenodd">
        <g id="Themen" transform="translate(-1154.000000, -38.000000)" fill="#000000">
            <path d="M1159.9,48.6256857 C1157.29143,48.6256857 1155.17143,46.5057143 1155.17143,43.9 C1155.17143,41.2942571 1157.29143,39.1714286 1159.9,39.1714286 C1162.50571,39.1714286 1164.62857,41.2942571 1164.62857,43.9 C1164.62857,46.5057143 1162.50571,48.6256857 1159.9,48.6256857 M1167.82857,51.0057143 L1164.46286,47.6399714 C1165.29714,46.6228286 1165.8,45.32 1165.8,43.9 C1165.8,40.6428571 1163.15714,38 1159.9,38 C1156.64,38 1154,40.6428571 1154,43.9 C1154,47.1571429 1156.64,49.8 1159.9,49.8 C1161.32,49.8 1162.62,49.3 1163.63714,48.4656857 L1167.00286,51.8285714 C1167.23143,52.0571429 1167.6,52.0571429 1167.82857,51.8285714 C1168.05714,51.6028286 1168.05714,51.2314 1167.82857,51.0057143" id="Fill-1"></path>
        </g>
    </g>
</svg>