<?xml version="1.0" encoding="utf-8"?>
<!-- Generator: Adobe Illustrator 22.1.0, SVG Export Plug-In . SVG Version: 6.00 Build 0)  -->
<svg version="1.1" id="Layer_1" xmlns="http://www.w3.org/2000/svg" xmlns:xlink="http://www.w3.org/1999/xlink" x="0px" y="0px"
	 viewBox="0 0 22 15" style="enable-background:new 0 0 22 15;" xml:space="preserve">
<style type="text/css">
	.st0{enable-background:new    ;}
</style>
<title></title>
<desc>Created with Sketch.</desc>
<g id="Page-1">
	<g id="Themen" transform="translate(-885.000000, -3035.000000)">
		<g id="Group-5" transform="translate(33.000000, 2697.000000)">
			<g class="st0">
				<path d="M873.5,340.3c0.2,0.7,0.3,1.8,0.4,3.2l0,2l0,2c-0.1,1.5-0.2,2.5-0.4,3.2c-0.1,0.4-0.4,0.8-0.7,1.2s-0.7,0.6-1.2,0.7
					c-0.7,0.2-2.3,0.3-4.8,0.4l-3.6,0l-3.6,0c-2.5-0.1-4.1-0.2-4.8-0.4c-0.5-0.1-0.9-0.4-1.2-0.7s-0.6-0.7-0.7-1.2
					c-0.2-0.7-0.3-1.8-0.4-3.2l0-2c0-0.6,0-1.2,0-2c0.1-1.4,0.2-2.5,0.4-3.2c0.1-0.5,0.4-0.9,0.7-1.2s0.7-0.6,1.2-0.7
					c0.7-0.2,2.3-0.3,4.8-0.4l3.6,0l3.6,0c2.5,0.1,4.1,0.2,4.8,0.4c0.5,0.1,0.9,0.4,1.2,0.7S873.4,339.9,873.5,340.3z M861.1,348.7
					l5.6-3.2l-5.6-3.2V348.7z"/>
			</g>
		</g>
	</g>
</g>
</svg>
