<svg xmlns="http://www.w3.org/2000/svg" width="220.63" height="220.66" fill="none"><path d="M171.34 110c0 33.7-27.32 61.03-61.03 61.03-33.702 0-61.026-27.33-61.026-61.03 0-33.706 27.324-61.03 61.026-61.03 33.71 0 61.03 27.324 61.03 61.03zm-115.484 0c0 30.07 24.381 54.46 54.454 54.46 30.08 0 54.46-24.39 54.46-54.46 0-30.076-24.38-54.458-54.46-54.458-30.073 0-54.454 24.382-54.454 54.458z" fill="url(#paint0_linear)"/><path d="M182.92 116.13l37.71 5.06-.95 7.09-37.71-5.09z" fill="url(#paint1_linear)"/><path d="M150.7 17.365l-12.23 25.68 6.43 3.066 12.24-25.68z" fill="url(#paint2_linear)"/><path d="M64.627 53.634l-3.394-4.616 5.77-4.21 3.36 4.617-5.736 4.21z" fill="url(#paint3_linear)"/><path d="M55.259 62.732L38.254 46.607l4.921-5.194 17.006 16.125z" fill="url(#paint4_linear)"/><path d="M37.967 116.66l-14.254 1.99.985 7.06 14.254-1.99z" fill="url(#paint5_linear)"/><path d="M51.544 152.89l-24.864 20 4.467 5.55 24.864-19.99z" fill="url(#paint6_linear)"/><path d="M70.298 170.82l-7.311 12.36 6.134 3.63 7.31-12.36z" fill="url(#paint7_linear)"/><path d="M159.9 171.19l-4.04-3.97 5.1-5.02 4 3.97z" fill="url(#paint8_linear)"/><path d="M202.09 85.222l-21.73 5.054 1.62 6.944 21.72-5.054z" fill="url(#paint9_linear)"/><path d="M178.54 84.628l-2.85-6.552 13.98-6.042 2.82 6.552z" fill="url(#paint10_linear)"/><path d="M165.2 62.325l-4.92-5.126 5.53-5.364 4.92 5.16z" fill="url(#paint11_linear)"/><path d="M184.49 1.233l-34.5 47.9 5.79 4.167 34.5-47.9z" fill="url(#paint12_linear)"/><path d="M120.22 38.155l-7.12-.68 2.44-28.346 7.09.611z" fill="url(#paint13_linear)"/><path d="M47.69 73.324l-26.204-17.28 3.903-5.974 26.204 17.313z" fill="url(#paint14_linear)"/><path d="M126.44 216.17l-6.28-33.91 6.99-1.32 6.31 33.91z" fill="url(#paint15_linear)"/><path d="M191.16 157.27l-18.33-9.77 3.37-6.28 18.32 9.74z" fill="url(#paint16_linear)"/><path d="M136.66 0l-10.62 39.115 6.88 1.868 10.62-39.114z" fill="url(#paint17_linear)"/><path d="M75.456 30.095l-6.408 3.12 6.402 13.157 6.409-3.12-6.404-13.156z" fill="url(#paint18_linear)"/><path d="M40.297 129.5l-7.77 2.56 2.231 6.77 7.77-2.56z" fill="url(#paint19_linear)"/><path d="M94.204 181.07l-4.478 25.27 7.019 1.24 4.475-25.27z" fill="url(#paint20_linear)"/><path d="M144.83 174.25l28.34 46.4 6.11-3.7-28.34-46.4z" fill="url(#paint21_linear)"/><path d="M187.33 138.57l-8.83-2.82 2.18-6.79 8.82 2.82z" fill="url(#paint22_linear)"/><path d="M172.87 72.882l-3.94-5.94 36.79-24.544 3.98 5.94-36.83 24.545z" fill="url(#paint23_linear)"/><path d="M0 89.042l38.763 8.69 1.561-6.96-38.728-8.69z" fill="url(#paint24_linear)"/><path d="M100.1 38.155L97.11 6.448l7.09-.68 2.99 31.708z" fill="url(#paint25_linear)"/><path d="M87.402 41.142l-5.906-20.98 6.89-1.935 5.874 21.015-6.857 1.9z" fill="url(#paint26_linear)"/><path d="M42.123 85.138l-16.428-6.96 2.783-6.551 16.428 6.925z" fill="url(#paint27_linear)"/><path d="M13.747 102.65l24.235.95-.305 7.13-24.235-.95z" fill="url(#paint28_linear)"/><path d="M44.87 141.67l-26.008 14.14 3.403 6.26 26.008-14.13z" fill="url(#paint29_linear)"/><path d="M60.132 162.7l-20.356 23.51 5.388 4.66 20.356-23.5z" fill="url(#paint30_linear)"/><path d="M78.78 205.72l-6.686-2.48 9.708-26.21 6.686 2.48-9.707 26.21z" fill="url(#paint31_linear)"/><path d="M114.32 200.63h-7.13l-.1-17.82h7.13z" fill="url(#paint32_linear)"/><path d="M139.55 176.82l-6.66 2.53 7.4 19.49 6.67-2.54z" fill="url(#paint33_linear)"/><path d="M183.19 172.31l-18.03-14.26 4.42-5.6 18.05 14.26z" fill="url(#paint34_linear)"/><path d="M183.15 110.19l-.37-7.13 17.65-.85.34 7.13z" fill="url(#paint35_linear)"/><path d="M108.35 128.83v8.89H75.391v-8.89H86.51V99.642a67.241 67.241 0 01.159-4.524l-6.591 5.482c-.583.45-1.165.72-1.747.83a5.348 5.348 0 01-1.589 0 4.35 4.35 0 01-1.35-.52c-.397-.26-.688-.53-.873-.79l-3.892-5.16 18.028-15.13H98.82v49zm40.86-20.05c0 5.05-.54 9.43-1.62 13.14-1.09 3.71-2.6 6.78-4.53 9.21-1.91 2.44-4.18 4.25-6.83 5.44-2.62 1.19-5.47 1.79-8.54 1.79-3.07 0-5.91-.6-8.53-1.79-2.6-1.19-4.85-3-6.76-5.44-1.9-2.43-3.4-5.5-4.48-9.21-1.06-3.71-1.59-8.09-1.59-13.14 0-5.06.53-9.438 1.59-13.145 1.08-3.707 2.58-6.777 4.48-9.213 1.91-2.435 4.16-4.235 6.76-5.4 2.62-1.191 5.46-1.787 8.53-1.787 3.07 0 5.92.596 8.54 1.787 2.65 1.165 4.92 2.965 6.83 5.4 1.93 2.436 3.44 5.507 4.53 9.213 1.08 3.707 1.62 8.085 1.62 13.145zm-12.7 0c0-4-.25-7.27-.76-9.81-.5-2.568-1.17-4.58-2.02-6.036-.82-1.456-1.76-2.448-2.82-2.978-1.06-.556-2.13-.834-3.22-.834-1.08 0-2.15.278-3.21.834-1.04.53-1.96 1.522-2.78 2.978-.8 1.456-1.45 3.468-1.95 6.036-.47 2.54-.71 5.81-.71 9.81 0 4.02.24 7.3.71 9.84.5 2.54 1.15 4.56 1.95 6.04.82 1.45 1.74 2.46 2.78 3.02 1.06.53 2.13.79 3.21.79 1.09 0 2.16-.26 3.22-.79 1.06-.56 2-1.57 2.82-3.02.85-1.48 1.52-3.5 2.02-6.04.51-2.54.76-5.82.76-9.84z" fill="url(#paint36_linear)"/><defs id="defs345"><linearGradient id="paint0_linear" x1="221.48" y1=".928" x2=".826" y2="221.56" gradientUnits="userSpaceOnUse" gradientTransform="translate(-.85 -.928)"><stop offset=".109" stop-color="#ED496E" id="stop86"/><stop offset=".438" stop-color="#F290EE" id="stop88"/><stop offset=".833" stop-color="#5DDBF7" id="stop90"/></linearGradient><linearGradient id="paint1_linear" x1="221.48" y1=".928" x2=".826" y2="221.56" gradientUnits="userSpaceOnUse" gradientTransform="translate(-.85 -.928)"><stop offset=".109" stop-color="#ED496E" id="stop93"/><stop offset=".438" stop-color="#F290EE" id="stop95"/><stop offset=".833" stop-color="#5DDBF7" id="stop97"/></linearGradient><linearGradient id="paint2_linear" x1="221.48" y1=".928" x2=".826" y2="221.56" gradientUnits="userSpaceOnUse" gradientTransform="translate(-.85 -.928)"><stop offset=".109" stop-color="#ED496E" id="stop100"/><stop offset=".438" stop-color="#F290EE" id="stop102"/><stop offset=".833" stop-color="#5DDBF7" id="stop104"/></linearGradient><linearGradient id="paint3_linear" x1="221.48" y1=".928" x2=".826" y2="221.56" gradientUnits="userSpaceOnUse" gradientTransform="translate(-.85 -.928)"><stop offset=".109" stop-color="#ED496E" id="stop107"/><stop offset=".438" stop-color="#F290EE" id="stop109"/><stop offset=".833" stop-color="#5DDBF7" id="stop111"/></linearGradient><linearGradient id="paint4_linear" x1="221.48" y1=".928" x2=".826" y2="221.56" gradientUnits="userSpaceOnUse" gradientTransform="translate(-.85 -.928)"><stop offset=".109" stop-color="#ED496E" id="stop114"/><stop offset=".438" stop-color="#F290EE" id="stop116"/><stop offset=".833" stop-color="#5DDBF7" id="stop118"/></linearGradient><linearGradient id="paint5_linear" x1="221.48" y1=".928" x2=".826" y2="221.56" gradientUnits="userSpaceOnUse" gradientTransform="translate(-.85 -.928)"><stop offset=".109" stop-color="#ED496E" id="stop121"/><stop offset=".438" stop-color="#F290EE" id="stop123"/><stop offset=".833" stop-color="#5DDBF7" id="stop125"/></linearGradient><linearGradient id="paint6_linear" x1="221.48" y1=".928" x2=".826" y2="221.56" gradientUnits="userSpaceOnUse" gradientTransform="translate(-.85 -.928)"><stop offset=".109" stop-color="#ED496E" id="stop128"/><stop offset=".438" stop-color="#F290EE" id="stop130"/><stop offset=".833" stop-color="#5DDBF7" id="stop132"/></linearGradient><linearGradient id="paint7_linear" x1="221.48" y1=".928" x2=".826" y2="221.56" gradientUnits="userSpaceOnUse" gradientTransform="translate(-.85 -.928)"><stop offset=".109" stop-color="#ED496E" id="stop135"/><stop offset=".438" stop-color="#F290EE" id="stop137"/><stop offset=".833" stop-color="#5DDBF7" id="stop139"/></linearGradient><linearGradient id="paint8_linear" x1="221.48" y1=".928" x2=".826" y2="221.56" gradientUnits="userSpaceOnUse" gradientTransform="translate(-.85 -.928)"><stop offset=".109" stop-color="#ED496E" id="stop142"/><stop offset=".438" stop-color="#F290EE" id="stop144"/><stop offset=".833" stop-color="#5DDBF7" id="stop146"/></linearGradient><linearGradient id="paint9_linear" x1="221.48" y1=".928" x2=".826" y2="221.56" gradientUnits="userSpaceOnUse" gradientTransform="translate(-.85 -.928)"><stop offset=".109" stop-color="#ED496E" id="stop149"/><stop offset=".438" stop-color="#F290EE" id="stop151"/><stop offset=".833" stop-color="#5DDBF7" id="stop153"/></linearGradient><linearGradient id="paint10_linear" x1="221.48" y1=".928" x2=".826" y2="221.56" gradientUnits="userSpaceOnUse" gradientTransform="translate(-.85 -.928)"><stop offset=".109" stop-color="#ED496E" id="stop156"/><stop offset=".438" stop-color="#F290EE" id="stop158"/><stop offset=".833" stop-color="#5DDBF7" id="stop160"/></linearGradient><linearGradient id="paint11_linear" x1="221.48" y1=".928" x2=".826" y2="221.56" gradientUnits="userSpaceOnUse" gradientTransform="translate(-.85 -.928)"><stop offset=".109" stop-color="#ED496E" id="stop163"/><stop offset=".438" stop-color="#F290EE" id="stop165"/><stop offset=".833" stop-color="#5DDBF7" id="stop167"/></linearGradient><linearGradient id="paint12_linear" x1="221.48" y1=".928" x2=".826" y2="221.56" gradientUnits="userSpaceOnUse" gradientTransform="translate(-.85 -.928)"><stop offset=".109" stop-color="#ED496E" id="stop170"/><stop offset=".438" stop-color="#F290EE" id="stop172"/><stop offset=".833" stop-color="#5DDBF7" id="stop174"/></linearGradient><linearGradient id="paint13_linear" x1="221.48" y1=".928" x2=".826" y2="221.56" gradientUnits="userSpaceOnUse" gradientTransform="translate(-.85 -.928)"><stop offset=".109" stop-color="#ED496E" id="stop177"/><stop offset=".438" stop-color="#F290EE" id="stop179"/><stop offset=".833" stop-color="#5DDBF7" id="stop181"/></linearGradient><linearGradient id="paint14_linear" x1="221.48" y1=".928" x2=".826" y2="221.56" gradientUnits="userSpaceOnUse" gradientTransform="translate(-.85 -.928)"><stop offset=".109" stop-color="#ED496E" id="stop184"/><stop offset=".438" stop-color="#F290EE" id="stop186"/><stop offset=".833" stop-color="#5DDBF7" id="stop188"/></linearGradient><linearGradient id="paint15_linear" x1="221.48" y1=".928" x2=".826" y2="221.56" gradientUnits="userSpaceOnUse" gradientTransform="translate(-.85 -.928)"><stop offset=".109" stop-color="#ED496E" id="stop191"/><stop offset=".438" stop-color="#F290EE" id="stop193"/><stop offset=".833" stop-color="#5DDBF7" id="stop195"/></linearGradient><linearGradient id="paint16_linear" x1="221.48" y1=".928" x2=".826" y2="221.56" gradientUnits="userSpaceOnUse" gradientTransform="translate(-.85 -.928)"><stop offset=".109" stop-color="#ED496E" id="stop198"/><stop offset=".438" stop-color="#F290EE" id="stop200"/><stop offset=".833" stop-color="#5DDBF7" id="stop202"/></linearGradient><linearGradient id="paint17_linear" x1="221.48" y1=".928" x2=".826" y2="221.56" gradientUnits="userSpaceOnUse" gradientTransform="translate(-.85 -.928)"><stop offset=".109" stop-color="#ED496E" id="stop205"/><stop offset=".438" stop-color="#F290EE" id="stop207"/><stop offset=".833" stop-color="#5DDBF7" id="stop209"/></linearGradient><linearGradient id="paint18_linear" x1="221.48" y1=".928" x2=".826" y2="221.56" gradientUnits="userSpaceOnUse" gradientTransform="translate(-.85 -.928)"><stop offset=".109" stop-color="#ED496E" id="stop212"/><stop offset=".438" stop-color="#F290EE" id="stop214"/><stop offset=".833" stop-color="#5DDBF7" id="stop216"/></linearGradient><linearGradient id="paint19_linear" x1="221.48" y1=".928" x2=".826" y2="221.56" gradientUnits="userSpaceOnUse" gradientTransform="translate(-.85 -.928)"><stop offset=".109" stop-color="#ED496E" id="stop219"/><stop offset=".438" stop-color="#F290EE" id="stop221"/><stop offset=".833" stop-color="#5DDBF7" id="stop223"/></linearGradient><linearGradient id="paint20_linear" x1="221.48" y1=".928" x2=".826" y2="221.56" gradientUnits="userSpaceOnUse" gradientTransform="translate(-.85 -.928)"><stop offset=".109" stop-color="#ED496E" id="stop226"/><stop offset=".438" stop-color="#F290EE" id="stop228"/><stop offset=".833" stop-color="#5DDBF7" id="stop230"/></linearGradient><linearGradient id="paint21_linear" x1="221.48" y1=".928" x2=".826" y2="221.56" gradientUnits="userSpaceOnUse" gradientTransform="translate(-.85 -.928)"><stop offset=".109" stop-color="#ED496E" id="stop233"/><stop offset=".438" stop-color="#F290EE" id="stop235"/><stop offset=".833" stop-color="#5DDBF7" id="stop237"/></linearGradient><linearGradient id="paint22_linear" x1="221.48" y1=".928" x2=".826" y2="221.56" gradientUnits="userSpaceOnUse" gradientTransform="translate(-.85 -.928)"><stop offset=".109" stop-color="#ED496E" id="stop240"/><stop offset=".438" stop-color="#F290EE" id="stop242"/><stop offset=".833" stop-color="#5DDBF7" id="stop244"/></linearGradient><linearGradient id="paint23_linear" x1="221.48" y1=".928" x2=".826" y2="221.56" gradientUnits="userSpaceOnUse" gradientTransform="translate(-.85 -.928)"><stop offset=".109" stop-color="#ED496E" id="stop247"/><stop offset=".438" stop-color="#F290EE" id="stop249"/><stop offset=".833" stop-color="#5DDBF7" id="stop251"/></linearGradient><linearGradient id="paint24_linear" x1="221.48" y1=".928" x2=".826" y2="221.56" gradientUnits="userSpaceOnUse" gradientTransform="translate(-.85 -.928)"><stop offset=".109" stop-color="#ED496E" id="stop254"/><stop offset=".438" stop-color="#F290EE" id="stop256"/><stop offset=".833" stop-color="#5DDBF7" id="stop258"/></linearGradient><linearGradient id="paint25_linear" x1="221.48" y1=".928" x2=".826" y2="221.56" gradientUnits="userSpaceOnUse" gradientTransform="translate(-.85 -.928)"><stop offset=".109" stop-color="#ED496E" id="stop261"/><stop offset=".438" stop-color="#F290EE" id="stop263"/><stop offset=".833" stop-color="#5DDBF7" id="stop265"/></linearGradient><linearGradient id="paint26_linear" x1="221.48" y1=".928" x2=".826" y2="221.56" gradientUnits="userSpaceOnUse" gradientTransform="translate(-.85 -.928)"><stop offset=".109" stop-color="#ED496E" id="stop268"/><stop offset=".438" stop-color="#F290EE" id="stop270"/><stop offset=".833" stop-color="#5DDBF7" id="stop272"/></linearGradient><linearGradient id="paint27_linear" x1="221.48" y1=".928" x2=".826" y2="221.56" gradientUnits="userSpaceOnUse" gradientTransform="translate(-.85 -.928)"><stop offset=".109" stop-color="#ED496E" id="stop275"/><stop offset=".438" stop-color="#F290EE" id="stop277"/><stop offset=".833" stop-color="#5DDBF7" id="stop279"/></linearGradient><linearGradient id="paint28_linear" x1="221.48" y1=".928" x2=".826" y2="221.56" gradientUnits="userSpaceOnUse" gradientTransform="translate(-.85 -.928)"><stop offset=".109" stop-color="#ED496E" id="stop282"/><stop offset=".438" stop-color="#F290EE" id="stop284"/><stop offset=".833" stop-color="#5DDBF7" id="stop286"/></linearGradient><linearGradient id="paint29_linear" x1="221.48" y1=".928" x2=".826" y2="221.56" gradientUnits="userSpaceOnUse" gradientTransform="translate(-.85 -.928)"><stop offset=".109" stop-color="#ED496E" id="stop289"/><stop offset=".438" stop-color="#F290EE" id="stop291"/><stop offset=".833" stop-color="#5DDBF7" id="stop293"/></linearGradient><linearGradient id="paint30_linear" x1="221.48" y1=".928" x2=".826" y2="221.56" gradientUnits="userSpaceOnUse" gradientTransform="translate(-.85 -.928)"><stop offset=".109" stop-color="#ED496E" id="stop296"/><stop offset=".438" stop-color="#F290EE" id="stop298"/><stop offset=".833" stop-color="#5DDBF7" id="stop300"/></linearGradient><linearGradient id="paint31_linear" x1="221.48" y1=".928" x2=".826" y2="221.56" gradientUnits="userSpaceOnUse" gradientTransform="translate(-.85 -.928)"><stop offset=".109" stop-color="#ED496E" id="stop303"/><stop offset=".438" stop-color="#F290EE" id="stop305"/><stop offset=".833" stop-color="#5DDBF7" id="stop307"/></linearGradient><linearGradient id="paint32_linear" x1="221.48" y1=".928" x2=".826" y2="221.56" gradientUnits="userSpaceOnUse" gradientTransform="translate(-.85 -.928)"><stop offset=".109" stop-color="#ED496E" id="stop310"/><stop offset=".438" stop-color="#F290EE" id="stop312"/><stop offset=".833" stop-color="#5DDBF7" id="stop314"/></linearGradient><linearGradient id="paint33_linear" x1="221.48" y1=".928" x2=".826" y2="221.56" gradientUnits="userSpaceOnUse" gradientTransform="translate(-.85 -.928)"><stop offset=".109" stop-color="#ED496E" id="stop317"/><stop offset=".438" stop-color="#F290EE" id="stop319"/><stop offset=".833" stop-color="#5DDBF7" id="stop321"/></linearGradient><linearGradient id="paint34_linear" x1="221.48" y1=".928" x2=".826" y2="221.56" gradientUnits="userSpaceOnUse" gradientTransform="translate(-.85 -.928)"><stop offset=".109" stop-color="#ED496E" id="stop324"/><stop offset=".438" stop-color="#F290EE" id="stop326"/><stop offset=".833" stop-color="#5DDBF7" id="stop328"/></linearGradient><linearGradient id="paint35_linear" x1="221.48" y1=".928" x2=".826" y2="221.56" gradientUnits="userSpaceOnUse" gradientTransform="translate(-.85 -.928)"><stop offset=".109" stop-color="#ED496E" id="stop331"/><stop offset=".438" stop-color="#F290EE" id="stop333"/><stop offset=".833" stop-color="#5DDBF7" id="stop335"/></linearGradient><linearGradient id="paint36_linear" x1="155.89" y1="61.653" x2="63.238" y2="154.31" gradientUnits="userSpaceOnUse" gradientTransform="translate(-.85 -.928)"><stop offset=".109" stop-color="#ED496E" id="stop338"/><stop offset=".438" stop-color="#F290EE" id="stop340"/><stop offset=".833" stop-color="#5DDBF7" id="stop342"/></linearGradient></defs></svg>